<svg width="34" height="32" viewBox="0 0 34 32" fill="none" xmlns="http://www.w3.org/2000/svg">
<ellipse cx="16.9366" cy="16" rx="16.9366" ry="16" fill="#056433"/>
<path d="M25.5323 16C25.5323 20.4112 21.7334 24 17.064 24C12.3946 24 8.5957 20.4112 8.5957 16C8.5957 15.7237 8.83246 15.5 9.12497 15.5C9.41748 15.5 9.65424 15.7237 9.65424 16C9.65424 19.8598 12.9782 23 17.064 23C21.1498 23 24.4738 19.8598 24.4738 16C24.4738 12.1402 21.1498 9 17.064 9C15.0946 9 13.2663 9.72317 11.8909 11H13.8884C14.1809 11 14.4177 11.2237 14.4177 11.5C14.4177 11.7763 14.1809 12 13.8884 12H10.7128C10.4203 12 10.1835 11.7763 10.1835 11.5V8.5C10.1835 8.22367 10.4203 8 10.7128 8C11.0053 8 11.242 8.22367 11.242 8.5V10.2057C12.8036 8.79767 14.8554 8 17.064 8C21.7334 8 25.5323 11.5888 25.5323 16ZM21.8274 14V18.5C21.8274 18.7085 21.6905 18.895 21.4843 18.9683L17.2501 20.4683C17.1901 20.4893 17.127 20.5 17.064 20.5C17.001 20.5 16.9379 20.4893 16.8779 20.4683L12.6437 18.9683C12.4375 18.895 12.3006 18.7085 12.3006 18.5V14C12.3006 13.7915 12.4375 13.605 12.6437 13.5317L16.8779 12.0317C16.9978 11.9897 17.1302 11.9897 17.2499 12.0317L21.4841 13.5317C21.6905 13.605 21.8274 13.7915 21.8274 14ZM14.337 14L17.064 14.9658L19.791 14L17.064 13.0342L14.337 14ZM13.3591 18.1533L16.5347 19.2783V15.8467L13.3591 14.7217V18.1533ZM20.7689 18.1533V14.7217L17.5933 15.8467V19.2783L20.7689 18.1533Z" fill="white"/>
</svg>
