<svg width="34" height="32" viewBox="0 0 34 32" fill="none" xmlns="http://www.w3.org/2000/svg">
<ellipse cx="16.9366" cy="16" rx="16.9366" ry="16" fill="#056433"/>
<path d="M11.1756 16.0505V8.50003C11.1756 8.22403 10.939 8.00003 10.6463 8.00003C10.3537 8.00003 10.1171 8.22403 10.1171 8.50003V16.0505C8.91087 16.283 8 17.293 8 18.5C8 19.707 8.91087 20.717 10.1171 20.9495V23.5C10.1171 23.776 10.3537 24 10.6463 24C10.939 24 11.1756 23.776 11.1756 23.5V20.9495C12.3818 20.717 13.2927 19.707 13.2927 18.5C13.2927 17.293 12.3818 16.283 11.1756 16.0505ZM10.6463 20C9.77093 20 9.05854 19.327 9.05854 18.5C9.05854 17.673 9.77093 17 10.6463 17C11.5218 17 12.2341 17.673 12.2341 18.5C12.2341 19.327 11.5218 20 10.6463 20Z" fill="white"/>
<path d="M16.9979 11.0505V8.50003C16.9979 8.22403 16.7613 8.00003 16.4686 8.00003C16.1759 8.00003 15.9393 8.22403 15.9393 8.50003V11.0505C14.7331 11.283 13.8223 12.293 13.8223 13.5C13.8223 14.7075 14.7331 15.717 15.9393 15.9495V23.5C15.9393 23.776 16.1759 24 16.4686 24C16.7613 24 16.9979 23.776 16.9979 23.5V15.9495C18.2041 15.717 19.1149 14.7075 19.1149 13.5C19.1149 12.293 18.2041 11.283 16.9979 11.0505ZM16.4686 15C15.5932 15 14.8808 14.327 14.8808 13.5C14.8808 12.673 15.5932 12 16.4686 12C17.344 12 18.0564 12.673 18.0564 13.5C18.0564 14.327 17.344 15 16.4686 15Z" fill="white"/>
<path d="M24.9362 18.5C24.9362 17.293 24.0254 16.283 22.8192 16.0505V8.50003C22.8192 8.22403 22.5826 8.00003 22.2899 8.00003C21.9972 8.00003 21.7606 8.22403 21.7606 8.50003V16.0505C20.5544 16.283 19.6436 17.2925 19.6436 18.5C19.6436 19.707 20.5544 20.717 21.7606 20.9495V23.5C21.7606 23.776 21.9972 24 22.2899 24C22.5826 24 22.8192 23.776 22.8192 23.5V20.9495C24.0254 20.717 24.9362 19.707 24.9362 18.5ZM22.2899 20C21.4145 20 20.7021 19.327 20.7021 18.5C20.7021 17.673 21.4145 17 22.2899 17C23.1653 17 23.8777 17.673 23.8777 18.5C23.8777 19.327 23.1653 20 22.2899 20Z" fill="white"/>
</svg>
