<svg width="51" height="48" viewBox="0 0 51 48" fill="none" xmlns="http://www.w3.org/2000/svg">
<path d="M38.108 24C38.108 30.6167 32.4096 36 25.4056 36C18.4015 36 12.7031 30.6167 12.7031 24C12.7031 23.5855 13.0583 23.25 13.497 23.25C13.9358 23.25 14.2909 23.5855 14.2909 24C14.2909 29.7897 19.2769 34.5 25.4056 34.5C31.5342 34.5 36.5202 29.7897 36.5202 24C36.5202 18.2102 31.5342 13.5 25.4056 13.5C22.4515 13.5 19.709 14.5848 17.646 16.5H20.6421C21.0809 16.5 21.4361 16.8355 21.4361 17.25C21.4361 17.6645 21.0809 18 20.6421 18H15.8787C15.44 18 15.0848 17.6645 15.0848 17.25V12.75C15.0848 12.3355 15.44 12 15.8787 12C16.3175 12 16.6726 12.3355 16.6726 12.75V15.3085C19.0149 13.1965 22.0926 12 25.4056 12C32.4096 12 38.108 17.3833 38.108 24ZM32.5507 21V27.75C32.5507 28.0627 32.3453 28.3425 32.036 28.4525L25.6848 30.7025C25.5948 30.734 25.5 30.75 25.4056 30.75C25.3111 30.75 25.2163 30.734 25.1264 30.7025L18.7752 28.4525C18.4658 28.3425 18.2604 28.0627 18.2604 27.75V21C18.2604 20.6873 18.4658 20.4075 18.7752 20.2975L25.1264 18.0475C25.3063 17.9845 25.5048 17.9845 25.6845 18.0475L32.0357 20.2975C32.3453 20.4075 32.5507 20.6873 32.5507 21ZM21.3151 21L25.4056 22.4487L29.496 21L25.4056 19.5513L21.3151 21ZM19.8482 27.23L24.6117 28.9175V23.77L19.8482 22.0825V27.23ZM30.9629 27.23V22.0825L26.1995 23.77V28.9175L30.9629 27.23Z" fill="#D0D0D0"/>
</svg>
