<svg width="30" height="32" viewBox="0 0 30 32" fill="none" xmlns="http://www.w3.org/2000/svg">
<path d="M19.8693 8.61276H4.54497C4.28497 8.61276 4.07422 8.82351 4.07422 9.08351C4.07422 9.34351 4.28497 9.55426 4.54497 9.55426H19.8693C20.1293 9.55426 20.3401 9.34351 20.3401 9.08351C20.3401 8.82351 20.1293 8.61276 19.8693 8.61276Z" fill="#056433"/>
<path d="M4.54497 6.28882H12.2071C12.4671 6.28882 12.6778 6.07807 12.6778 5.81807C12.6778 5.55807 12.4671 5.34732 12.2071 5.34732H4.54497C4.28497 5.34732 4.07422 5.55807 4.07422 5.81807C4.07422 6.07813 4.28497 6.28882 4.54497 6.28882Z" fill="#056433"/>
<path d="M19.8693 11.506H4.54497C4.28497 11.506 4.07422 11.7168 4.07422 11.9768C4.07422 12.2368 4.28497 12.4475 4.54497 12.4475H19.8693C20.1293 12.4475 20.3401 12.2368 20.3401 11.9768C20.34 11.7168 20.1293 11.506 19.8693 11.506Z" fill="#056433"/>
<path d="M8.03597 28.7293H3.13178C2.32684 28.7293 1.67191 28.0744 1.67191 27.2694V2.40131C1.67191 1.59638 2.32684 0.941438 3.13178 0.941438H17.2603C17.3059 0.941438 17.3508 0.945625 17.3953 0.951625V3.8875C17.3953 5.21163 18.4725 6.28882 19.7966 6.28882H22.7324C22.7385 6.33331 22.7426 6.37825 22.7426 6.42388V14.4402C22.7426 14.7002 22.9534 14.9109 23.2134 14.9109C23.4734 14.9109 23.6841 14.7002 23.6841 14.4402V6.42394C23.6841 5.90756 23.483 5.42206 23.1179 5.05688L18.6272 0.56625C18.2621 0.201125 17.7767 0 17.2603 0H3.13178C1.80766 0 0.730469 1.07725 0.730469 2.40131V27.2694C0.730469 28.5935 1.80772 29.6707 3.13178 29.6707H8.03597C8.29597 29.6707 8.50672 29.4599 8.50672 29.1999C8.50672 28.9399 8.29597 28.7293 8.03597 28.7293ZM22.0769 5.34738H19.7967C18.9917 5.34738 18.3368 4.69244 18.3368 3.8875V1.60725L22.0769 5.34738Z" fill="#056433"/>
<path d="M28.9945 23.0456L25.0059 16.3131C24.7152 15.8222 24.0826 15.6599 23.5915 15.9509L22.6213 16.5257C21.8682 16.9718 21.5499 17.8746 21.8085 18.6747C21.4816 18.7931 21.1232 18.7912 20.7932 18.6637C20.0272 18.4227 19.4448 17.9379 18.483 18.1811C16.8499 18.5969 16.8995 18.5761 16.7518 18.6267C15.7955 18.0823 15.2207 17.9203 14.2056 18.313L13.3007 18.6628C12.8818 18.8247 12.4201 18.7863 12.033 18.5569L11.7861 18.4114C11.9066 17.6894 11.5864 16.9274 10.9084 16.5258C10.9084 16.5258 10.9084 16.5258 10.9083 16.5257L9.9382 15.951C9.44845 15.6609 8.81395 15.8233 8.52383 16.3131L4.53508 23.0456C4.24439 23.5364 4.40614 24.1692 4.89714 24.46L5.86726 25.0347C6.16083 25.2087 6.48345 25.2914 6.8022 25.2914C7.15764 25.2914 7.50808 25.1884 7.8077 24.9944L8.00989 25.1137L7.58301 25.7082C7.07433 26.4169 7.23595 27.4022 7.9447 27.911C8.27245 28.1462 8.6842 28.2537 9.11002 28.1868C9.17758 28.5817 9.39395 28.9514 9.74433 29.203C10.0734 29.4392 10.4833 29.5468 10.9098 29.4796C10.9776 29.8742 11.1938 30.2436 11.544 30.495C12.0146 30.8328 12.5998 30.8719 13.0873 30.6636C13.194 30.9407 13.3795 31.191 13.6381 31.3767C14.3136 31.8616 15.2441 31.7351 15.769 31.107L16.9034 31.779C17.6536 32.2236 18.6215 31.9765 19.0663 31.2254C19.1801 31.0334 19.2506 30.8242 19.2765 30.6091L19.279 30.6107C20.0281 31.0543 20.9982 30.8059 21.442 30.0571C21.5705 29.8401 21.6409 29.6048 21.658 29.369C22.3183 29.535 23.0378 29.2577 23.4022 28.6427C23.5218 28.4409 23.5911 28.223 23.6139 28.0037C24.3215 28.2814 25.1486 28.013 25.5482 27.3385C25.7631 26.9757 25.824 26.5509 25.7194 26.1424C25.6596 25.9086 25.5496 25.6964 25.3986 25.5172L26.0238 25.1519C26.5528 25.3691 27.1564 25.3343 27.6623 25.0347L28.6323 24.4599C29.1233 24.1693 29.2855 23.5366 28.9945 23.0456ZM6.34714 24.2248L5.37701 23.65C5.33389 23.6244 5.31958 23.5686 5.34508 23.5254L9.33383 16.7927C9.35951 16.7494 9.41558 16.7354 9.45845 16.7609L10.4285 17.3356C10.8596 17.591 10.9945 18.1439 10.7437 18.5671L7.57864 23.9096C7.32601 24.3361 6.77364 24.4774 6.34714 24.2248ZM8.4937 27.1462C8.20783 26.9409 8.14245 26.5433 8.34783 26.2573L8.97526 25.3833C9.17514 25.1049 9.57345 25.0287 9.86414 25.2374C10.1495 25.4422 10.2149 25.8409 10.0101 26.1262L9.38264 27.0002C9.17783 27.2856 8.77889 27.3509 8.4937 27.1462ZM10.2934 28.4382C10.0081 28.2334 9.94264 27.8346 10.1475 27.5493L10.7749 26.6754C10.7749 26.6754 10.7749 26.6754 10.7749 26.6753C10.7749 26.6753 10.7749 26.6752 10.775 26.6752L11.4674 25.7107C11.5666 25.5726 11.7137 25.4812 11.8816 25.4537C11.9165 25.4479 11.9514 25.4451 11.9861 25.4451C12.1182 25.4451 12.2468 25.4862 12.3563 25.5648C12.4944 25.6641 12.5858 25.8111 12.6133 25.9789C12.6408 26.1469 12.6014 26.3154 12.5021 26.4536L11.1822 28.2922C10.9771 28.5782 10.5794 28.6436 10.2934 28.4382ZM12.0931 29.7302C11.8079 29.5254 11.7424 29.1269 11.9468 28.8417C11.9469 28.8416 11.947 28.8414 11.9471 28.8413L13.267 27.0027C13.4717 26.7175 13.8707 26.652 14.1559 26.8567C14.4412 27.0616 14.5066 27.4603 14.3018 27.7456L13.7154 28.5626C13.7154 28.5626 13.7154 28.5626 13.7153 28.5626L12.9819 29.5842C12.7771 29.8696 12.3785 29.9351 12.0931 29.7302ZM14.1872 30.6119C13.9021 30.4072 13.8365 30.0089 14.0408 29.7236L14.4801 29.1117C14.6849 28.8263 15.0838 28.7611 15.369 28.9657C15.6543 29.1705 15.7198 29.5693 15.515 29.8546L15.076 30.4659C14.8713 30.7513 14.4724 30.8168 14.1872 30.6119ZM24.7384 26.8587C24.5593 27.161 24.1678 27.2612 23.8654 27.0822C23.3534 26.7789 20.0506 24.8222 19.6985 24.6136C19.4748 24.4811 19.1861 24.5549 19.0536 24.7786C18.9211 25.0022 18.9949 25.291 19.2186 25.4235L22.3688 27.2898L22.3688 27.2899C22.6713 27.469 22.7721 27.8593 22.5923 28.1629C22.4131 28.4654 22.0215 28.5654 21.7192 28.3865C20.5541 27.6962 19.608 27.1357 18.5673 26.5192C18.3435 26.3867 18.0549 26.4605 17.9224 26.6842C17.7899 26.9079 17.8637 27.1966 18.0874 27.3291L20.4085 28.7042L20.409 28.7046C20.7116 28.8842 20.8115 29.2744 20.6321 29.5774C20.4529 29.8798 20.0613 29.98 19.7589 29.8009L18.5132 29.0629C18.5131 29.0629 18.5129 29.0628 18.5128 29.0627C18.5126 29.0626 18.5125 29.0626 18.5124 29.0625L17.6033 28.5239C17.3796 28.3913 17.0909 28.4651 16.9584 28.6889C16.8259 28.9126 16.8997 29.2013 17.1234 29.3338L18.0326 29.8725C18.0328 29.8726 18.0329 29.8727 18.033 29.8727C18.3355 30.0519 18.4363 30.4421 18.2565 30.7457C18.0773 31.0482 17.6858 31.1484 17.3833 30.9692L16.3226 30.3409C16.7773 29.6393 16.6044 28.6938 15.9181 28.2012C15.7165 28.0566 15.4921 27.9665 15.2625 27.9278C15.506 27.2767 15.2961 26.5166 14.7049 26.0922C14.3549 25.8409 13.9358 25.7541 13.5403 25.8161C13.47 25.4045 13.2449 25.044 12.9053 24.8003C12.2667 24.342 11.3988 24.4301 10.8628 24.9724C10.7538 24.7811 10.6035 24.6094 10.4132 24.4729C9.88252 24.092 9.19351 24.0884 8.66814 24.4092L8.45245 24.2819L11.4131 19.2845L11.554 19.3676C12.1765 19.7364 12.9361 19.8132 13.6401 19.541L14.545 19.1912C15.0628 18.9911 15.3484 18.978 15.8606 19.2197C15.5255 19.5962 15.3265 20.0905 15.3265 20.6232V22.7104C15.3265 23.2648 15.7772 23.7161 16.3311 23.7165H16.3325C16.8881 23.7165 17.4106 23.5002 17.8037 23.1074C18.0328 22.8784 18.202 22.6054 18.3033 22.3074C18.9111 22.6673 23.9328 25.641 24.515 25.9859C24.6615 26.0727 24.7653 26.2112 24.8075 26.3761C24.8497 26.5408 24.8251 26.7122 24.7384 26.8587ZM28.1526 23.65L27.1825 24.2248C26.756 24.4773 26.2036 24.3359 25.9511 23.9096L24.4676 21.4056C24.335 21.1819 24.0461 21.1081 23.8226 21.2404C23.599 21.3729 23.5251 21.6617 23.6575 21.8854L25.141 24.3895C25.169 24.4366 25.1993 24.4814 25.2306 24.5251L24.8182 24.7661C24.7348 24.8154 24.6546 24.8698 24.578 24.9289L18.1828 21.1417C17.8695 20.9562 17.4722 21.1823 17.4722 21.5467C17.4673 21.5748 17.5208 22.0587 17.1381 22.4412C16.9229 22.6563 16.6368 22.7748 16.3325 22.7748C16.3322 22.7748 16.332 22.7748 16.3317 22.7748C16.2965 22.7748 16.2679 22.7458 16.2679 22.7102V20.623C16.2679 20.0777 16.643 19.6177 17.1503 19.4893L18.7138 19.0936C19.2811 18.9502 19.6018 19.2532 20.4513 19.5407C21.041 19.7688 21.6821 19.7547 22.2513 19.5117L22.5354 19.9913C22.668 20.2151 22.9567 20.2889 23.1803 20.1564C23.404 20.0239 23.4779 19.7352 23.3455 19.5115L22.7858 18.5669C22.5326 18.1396 22.6737 17.5888 23.101 17.3355L24.0711 16.7608C24.1135 16.7356 24.1696 16.7485 24.1958 16.7927L28.1845 23.5253C28.2102 23.5687 28.196 23.6243 28.1526 23.65Z" fill="#056433"/>
</svg>
