<svg width="33" height="23" viewBox="0 0 33 23" fill="none" xmlns="http://www.w3.org/2000/svg">
<path d="M32.4188 18.7108H30.6899C31.0525 18.2318 31.2759 17.6422 31.2759 16.9965V3.85372C31.2759 2.27839 29.9941 0.996582 28.4188 0.996582H5.56166C3.98633 0.996582 2.70452 2.27839 2.70452 3.85372V10.1394C2.72302 10.896 3.83266 10.8874 3.84738 10.1394V3.85372C3.84738 2.90841 4.61635 2.13944 5.56166 2.13944H28.4188C29.3641 2.13944 30.1331 2.90841 30.1331 3.85372V16.9965C30.1331 17.9418 29.3641 18.7108 28.4188 18.7108H19.8474C19.5362 18.6834 19.2408 19.0993 19.0393 19.2823C19.0393 19.2822 14.9411 19.2822 14.9411 19.2822C14.7396 19.0941 14.4464 18.686 14.1331 18.7108C14.1331 18.7108 5.56166 18.7108 5.56166 18.7108C4.61635 18.7108 3.84738 17.9418 3.84738 16.9965V12.9965C3.84173 12.2499 2.71354 12.2434 2.70453 12.9966C2.70452 12.9965 2.70452 16.9965 2.70452 16.9965C2.70452 17.6422 2.92795 18.2318 3.29056 18.7108H1.56166C1.24581 18.7108 0.990234 18.9664 0.990234 19.2822C0.990234 21.1729 2.52818 22.7108 4.41881 22.7108H21.5617C22.3106 22.6966 22.3154 21.5822 21.5616 21.5679H4.41881C3.35575 21.5679 2.45955 20.8386 2.20564 19.8537C4.3799 19.8532 11.6004 19.854 13.8965 19.8537C14.1062 20.0257 14.3859 20.4623 14.7045 20.4251C14.7045 20.4251 19.2759 20.4251 19.2759 20.4251C19.5942 20.4607 19.8772 20.031 20.084 19.8537C20.084 19.8537 31.7748 19.8537 31.7748 19.8537C31.5209 20.8386 30.6247 21.5679 29.5617 21.5679H24.4188C23.6644 21.5795 23.6711 22.7002 24.4188 22.7108C24.4188 22.7108 29.5617 22.7108 29.5617 22.7108C31.4523 22.7108 32.9902 21.1728 32.9902 19.2822C32.9902 18.9664 32.7346 18.7108 32.4188 18.7108Z" fill="#056433"/>
<path d="M15.8469 13.2822C16.0567 13.2822 16.2581 13.1667 16.3586 12.9664L18.6443 8.39494C18.9685 7.71928 17.9706 7.21682 17.622 7.88381L15.3363 12.4552C15.141 12.8221 15.4346 13.2915 15.8469 13.2822Z" fill="#056433"/>
<path d="M21.1586 13.1149C21.3818 13.3381 21.7434 13.3381 21.9667 13.1149L24.2524 10.8292C24.4756 10.606 24.4756 10.2444 24.2524 10.0212L21.9667 7.73546C21.7434 7.51225 21.3818 7.51225 21.1586 7.73546C20.9354 7.95867 20.9354 8.32028 21.1586 8.54349L23.0403 10.4252L21.1586 12.3069C20.9354 12.5301 20.9354 12.8917 21.1586 13.1149Z" fill="#056433"/>
<path d="M12.8237 7.73546C12.6004 7.51225 12.2388 7.51225 12.0156 7.73546L9.72991 10.0212C9.5067 10.2444 9.5067 10.606 9.72991 10.8292L12.0156 13.1149C12.1272 13.2265 12.2734 13.2823 12.4196 13.2823C12.9081 13.2988 13.1883 12.6469 12.8236 12.3069C12.8237 12.3069 10.942 10.4252 10.942 10.4252L12.8237 8.54349C13.0469 8.32028 13.0469 7.95868 12.8237 7.73546Z" fill="#056433"/>
</svg>
