<svg width="32" height="21" viewBox="0 0 32 21" fill="none" xmlns="http://www.w3.org/2000/svg">
<path d="M0 1C0 0.447715 0.447715 0 1 0H22.5C23.0523 0 23.5 0.447715 23.5 1C23.5 1.55228 23.0523 2 22.5 2H1C0.447715 2 0 1.55228 0 1Z" fill="#056433"/>
<path d="M4 5.5C4 4.94772 4.44772 4.5 5 4.5H31C31.5523 4.5 32 4.94772 32 5.5C32 6.05228 31.5523 6.5 31 6.5H5C4.44771 6.5 4 6.05228 4 5.5Z" fill="#056433"/>
<path d="M2.25 10.25C2.25 9.69772 2.69772 9.25 3.25 9.25H19.5C20.0523 9.25 20.5 9.69772 20.5 10.25C20.5 10.8023 20.0523 11.25 19.5 11.25H3.25C2.69772 11.25 2.25 10.8023 2.25 10.25Z" fill="#056433"/>
<path d="M7 15C7 14.4477 7.44772 14 8 14H26.5C27.0523 14 27.5 14.4477 27.5 15C27.5 15.5523 27.0523 16 26.5 16H8C7.44772 16 7 15.5523 7 15Z" fill="#056433"/>
<path d="M1.5 19.75C1.5 19.1977 1.94772 18.75 2.5 18.75H28.25C28.8023 18.75 29.25 19.1977 29.25 19.75C29.25 20.3023 28.8023 20.75 28.25 20.75H2.5C1.94771 20.75 1.5 20.3023 1.5 19.75Z" fill="#056433"/>
</svg>
