<svg width="34" height="32" viewBox="0 0 34 32" fill="none" xmlns="http://www.w3.org/2000/svg">
<ellipse cx="16.9366" cy="16" rx="16.9366" ry="16" fill="#056433"/>
<path d="M19.3013 16.7034V17.173C19.3008 17.4842 19.1697 17.7826 18.9368 18.0026C18.7038 18.2227 18.3881 18.3465 18.0586 18.347H17.8101V18.8166C17.8101 18.9411 17.7577 19.0606 17.6645 19.1487C17.5713 19.2367 17.4449 19.2862 17.313 19.2862C17.1812 19.2862 17.0548 19.2367 16.9615 19.1487C16.8683 19.0606 16.8159 18.9411 16.8159 18.8166V18.347H16.0703C15.9385 18.347 15.8121 18.2975 15.7188 18.2095C15.6256 18.1214 15.5732 18.002 15.5732 17.8774C15.5732 17.7529 15.6256 17.6334 15.7188 17.5454C15.8121 17.4573 15.9385 17.4078 16.0703 17.4078H18.0586C18.1246 17.4078 18.1878 17.3831 18.2344 17.3391C18.281 17.295 18.3072 17.2353 18.3072 17.173V16.7034C18.3072 16.6412 18.281 16.5815 18.2344 16.5374C18.1878 16.4934 18.1246 16.4687 18.0586 16.4687H16.5674C16.238 16.4682 15.9222 16.3443 15.6893 16.1243C15.4563 15.9042 15.3252 15.6059 15.3247 15.2947V14.8251C15.3252 14.5139 15.4563 14.2156 15.6893 13.9955C15.9222 13.7755 16.238 13.6516 16.5674 13.6511H16.8159V13.1233C16.8159 12.9987 16.8683 12.8793 16.9615 12.7912C17.0548 12.7032 17.1812 12.6537 17.313 12.6537C17.4449 12.6537 17.5713 12.7032 17.6645 12.7912C17.7577 12.8793 17.8101 12.9987 17.8101 13.1233V13.6511H18.5557C18.6875 13.6511 18.814 13.7006 18.9072 13.7886C19.0004 13.8767 19.0528 13.9962 19.0528 14.1207C19.0528 14.2452 19.0004 14.3647 18.9072 14.4527C18.814 14.5408 18.6875 14.5903 18.5557 14.5903H16.5674C16.5015 14.5903 16.4383 14.615 16.3917 14.6591C16.345 14.7031 16.3189 14.7628 16.3189 14.8251V15.2947C16.3189 15.3569 16.345 15.4167 16.3917 15.4607C16.4383 15.5047 16.5015 15.5295 16.5674 15.5295H18.0586C18.3881 15.53 18.7038 15.6538 18.9368 15.8739C19.1697 16.0939 19.3008 16.3922 19.3013 16.7034ZM21.91 12.3212L21.5123 12.6969C22.3319 13.6235 22.7809 14.7925 22.7809 16C22.7809 17.2075 22.3319 18.3765 21.5123 19.3031L21.91 19.6788C22.4256 19.3563 23.0495 19.2263 23.6608 19.3138C24.2721 19.4014 24.8272 19.7003 25.2185 20.1526C25.6097 20.6049 25.8092 21.1783 25.7782 21.7617C25.7472 22.3451 25.4879 22.8968 25.0507 23.3098C24.6135 23.7229 24.0295 23.9678 23.412 23.997C22.7945 24.0263 22.1875 23.8379 21.7087 23.4683C21.2299 23.0987 20.9135 22.5743 20.8208 21.9968C20.7281 21.4193 20.8658 20.8298 21.2071 20.3428L20.8095 19.9671C19.8287 20.7413 18.5912 21.1655 17.313 21.1655C16.0349 21.1655 14.7974 20.7413 13.8166 19.9671L13.4189 20.3428C13.7597 20.8293 13.897 21.418 13.8044 21.9947C13.7117 22.5715 13.3956 23.0952 12.9174 23.4643C12.4392 23.8333 11.8329 24.0215 11.2162 23.9922C10.5995 23.9629 10.0162 23.7183 9.57957 23.3058C9.14292 22.8933 8.884 22.3423 8.853 21.7597C8.82201 21.1771 9.02116 20.6043 9.41183 20.1525C9.8025 19.7008 10.3569 19.4022 10.9674 19.3146C11.5779 19.2271 12.2011 19.3569 12.716 19.6788L13.1137 19.3031C12.2942 18.3765 11.8452 17.2075 11.8452 16C11.8452 14.7925 12.2942 13.6235 13.1137 12.6969L12.716 12.3212C12.2005 12.6437 11.5765 12.7737 10.9652 12.6862C10.3539 12.5987 9.79879 12.2997 9.40756 11.8474C9.01633 11.3951 8.81687 10.8217 8.84786 10.2383C8.87886 9.65491 9.1381 9.1032 9.5753 8.69018C10.0125 8.27715 10.5965 8.03224 11.214 8.00296C11.8316 7.97368 12.4386 8.16212 12.9174 8.53171C13.3962 8.90131 13.7126 9.42572 13.8052 10.0032C13.8979 10.5807 13.7602 11.1702 13.4189 11.6572L13.8166 12.0329C14.7974 11.2587 16.0349 10.8345 17.313 10.8345C18.5912 10.8345 19.8287 11.2587 20.8095 12.0329L21.2071 11.6572C20.8664 11.1707 20.729 10.582 20.8217 10.0053C20.9143 9.42851 21.2304 8.90481 21.7086 8.53575C22.1869 8.16668 22.7931 7.97854 23.4099 8.00782C24.0266 8.0371 24.6098 8.2817 25.0465 8.6942C25.4831 9.1067 25.742 9.65769 25.773 10.2403C25.804 10.8229 25.6049 11.3957 25.2142 11.8475C24.8235 12.2992 24.2692 12.5978 23.6587 12.6854C23.0482 12.7729 22.425 12.6431 21.91 12.3212ZM21.7867 10.364C21.7867 10.6426 21.8742 10.915 22.038 11.1466C22.2019 11.3783 22.4348 11.5589 22.7073 11.6655C22.9798 11.7721 23.2796 11.8 23.5689 11.7457C23.8582 11.6913 24.1239 11.5571 24.3324 11.3601C24.541 11.1631 24.683 10.9121 24.7405 10.6388C24.7981 10.3655 24.7686 10.0823 24.6557 9.82486C24.5428 9.56744 24.3517 9.34742 24.1065 9.19262C23.8612 9.03783 23.5729 8.9552 23.278 8.9552C22.8825 8.9552 22.5032 9.10363 22.2235 9.36782C21.9438 9.63202 21.7867 9.99034 21.7867 10.364ZM11.3481 11.7727C11.643 11.7727 11.9313 11.6901 12.1766 11.5353C12.4218 11.3805 12.6129 11.1605 12.7258 10.9031C12.8387 10.6457 12.8682 10.3624 12.8107 10.0891C12.7531 9.81586 12.6111 9.56484 12.4025 9.36782C12.194 9.1708 11.9283 9.03663 11.639 8.98227C11.3497 8.92791 11.0499 8.95581 10.7774 9.06244C10.5049 9.16907 10.272 9.34963 10.1082 9.5813C9.9443 9.81297 9.85684 10.0853 9.85684 10.364C9.85684 10.7376 10.0139 11.0959 10.2936 11.3601C10.5733 11.6243 10.9526 11.7727 11.3481 11.7727ZM12.8393 21.6341C12.8393 21.3555 12.7519 21.0831 12.588 20.8515C12.4241 20.6198 12.1912 20.4392 11.9187 20.3326C11.6463 20.226 11.3464 20.1981 11.0571 20.2524C10.7679 20.3068 10.5022 20.441 10.2936 20.638C10.0851 20.835 9.94303 21.086 9.88549 21.3593C9.82795 21.6326 9.85748 21.9158 9.97035 22.1733C10.0832 22.4307 10.2744 22.6507 10.5196 22.8055C10.7648 22.9603 11.0531 23.0429 11.3481 23.0429C11.7436 23.0429 12.1229 22.8945 12.4025 22.6303C12.6822 22.3661 12.8393 22.0078 12.8393 21.6341ZM23.278 20.2254C22.983 20.2254 22.6947 20.308 22.4495 20.4628C22.2042 20.6176 22.0131 20.8376 21.9002 21.095C21.7874 21.3525 21.7578 21.6357 21.8154 21.909C21.8729 22.1823 22.0149 22.4333 22.2235 22.6303C22.4321 22.8273 22.6978 22.9615 22.987 23.0159C23.2763 23.0702 23.5761 23.0423 23.8486 22.9357C24.1211 22.8291 24.354 22.6485 24.5179 22.4168C24.6817 22.1851 24.7692 21.9128 24.7692 21.6341C24.7692 21.2605 24.6121 20.9022 24.3324 20.638C24.0528 20.3738 23.6735 20.2254 23.278 20.2254ZM21.7867 15.9991C21.7867 15.1632 21.5244 14.3461 21.0328 13.651C20.5412 12.956 19.8425 12.4143 19.025 12.0945C18.2076 11.7746 17.3081 11.6909 16.4402 11.854C15.5724 12.017 14.7753 12.4195 14.1496 13.0106C13.524 13.6017 13.0979 14.3547 12.9253 15.1745C12.7527 15.9944 12.8412 16.8441 13.1799 17.6164C13.5185 18.3887 14.0919 19.0487 14.8276 19.5131C15.5633 19.9775 16.4282 20.2254 17.313 20.2254C18.4991 20.2241 19.6363 19.7785 20.475 18.9861C21.3137 18.1938 21.7854 17.1196 21.7867 15.9991Z" fill="white"/>
</svg>
