<svg width="51" height="48" viewBox="0 0 51 48" fill="none" xmlns="http://www.w3.org/2000/svg">
<path d="M28.388 25.0552V25.7596C28.3872 26.2264 28.1906 26.6738 27.8412 27.0039C27.4918 27.334 27.0181 27.5198 26.524 27.5205H26.1512V28.2249C26.1512 28.4117 26.0726 28.5909 25.9328 28.723C25.793 28.8551 25.6033 28.9293 25.4056 28.9293C25.2078 28.9293 25.0182 28.8551 24.8783 28.723C24.7385 28.5909 24.6599 28.4117 24.6599 28.2249V27.5205H23.5415C23.3438 27.5205 23.1541 27.4463 23.0143 27.3142C22.8745 27.1821 22.7959 27.0029 22.7959 26.8161C22.7959 26.6293 22.8745 26.4502 23.0143 26.3181C23.1541 26.186 23.3438 26.1117 23.5415 26.1117H26.524C26.6229 26.1117 26.7177 26.0746 26.7876 26.0086C26.8575 25.9425 26.8968 25.853 26.8968 25.7596V25.0552C26.8968 24.9618 26.8575 24.8722 26.7876 24.8061C26.7177 24.7401 26.6229 24.703 26.524 24.703H24.2871C23.793 24.7022 23.3193 24.5165 22.9699 24.1864C22.6205 23.8563 22.4239 23.4088 22.4231 22.942V22.2376C22.4239 21.7708 22.6205 21.3233 22.9699 20.9933C23.3193 20.6632 23.793 20.4774 24.2871 20.4767H24.6599V19.6849C24.6599 19.4981 24.7385 19.319 24.8783 19.1869C25.0182 19.0548 25.2078 18.9805 25.4056 18.9805C25.6033 18.9805 25.793 19.0548 25.9328 19.1869C26.0726 19.319 26.1512 19.4981 26.1512 19.6849V20.4767H27.2696C27.4674 20.4767 27.657 20.5509 27.7968 20.683C27.9367 20.8151 28.0152 20.9942 28.0152 21.181C28.0152 21.3679 27.9367 21.547 27.7968 21.6791C27.657 21.8112 27.4674 21.8854 27.2696 21.8854H24.2871C24.1883 21.8854 24.0934 21.9225 24.0235 21.9886C23.9536 22.0546 23.9143 22.1442 23.9143 22.2376V22.942C23.9143 23.0354 23.9536 23.125 24.0235 23.1911C24.0934 23.2571 24.1883 23.2942 24.2871 23.2942H26.524C27.0181 23.2949 27.4918 23.4807 27.8412 23.8108C28.1906 24.1409 28.3872 24.5884 28.388 25.0552ZM32.301 18.4818L31.7045 19.0454C32.9339 20.4352 33.6073 22.1888 33.6073 24C33.6073 25.8112 32.9339 27.5648 31.7045 28.9546L32.301 29.5182C33.0744 29.0345 34.0103 28.8394 34.9273 28.9707C35.8442 29.102 36.6769 29.5504 37.2637 30.2289C37.8506 30.9073 38.1498 31.7675 38.1033 32.6426C38.0568 33.5176 37.6679 34.3452 37.0121 34.9647C36.3563 35.5843 35.4803 35.9516 34.554 35.9956C33.6278 36.0395 32.7172 35.7568 31.999 35.2024C31.2809 34.648 30.8062 33.8614 30.6672 32.9952C30.5282 32.1289 30.7348 31.2447 31.2467 30.5142L30.6502 29.9507C29.179 31.112 27.3228 31.7482 25.4056 31.7482C23.4884 31.7482 21.6321 31.112 20.1609 29.9507L19.5644 30.5142C20.0755 31.2439 20.2816 32.127 20.1426 32.9921C20.0036 33.8572 19.5295 34.6428 18.8121 35.1964C18.0948 35.75 17.1854 36.0322 16.2603 35.9883C15.3352 35.9444 14.4604 35.5774 13.8054 34.9587C13.1504 34.3399 12.762 33.5135 12.7155 32.6395C12.6691 31.7656 12.9678 30.9065 13.5538 30.2288C14.1398 29.5512 14.9713 29.1032 15.8871 28.9719C16.8029 28.8406 17.7376 29.0353 18.5101 29.5182L19.1066 28.9546C17.8773 27.5648 17.2038 25.8112 17.2038 24C17.2038 22.1888 17.8773 20.4352 19.1066 19.0454L18.5101 18.4818C17.7368 18.9655 16.8008 19.1606 15.8839 19.0293C14.9669 18.898 14.1342 18.4496 13.5474 17.7711C12.9605 17.0927 12.6613 16.2325 12.7078 15.3574C12.7543 14.4824 13.1432 13.6548 13.799 13.0353C14.4548 12.4157 15.3308 12.0484 16.2571 12.0044C17.1834 11.9605 18.0939 12.2432 18.8121 12.7976C19.5303 13.352 20.0049 14.1386 20.1439 15.0048C20.2829 15.8711 20.0764 16.7553 19.5644 17.4858L20.1609 18.0493C21.6321 16.888 23.4884 16.2518 25.4056 16.2518C27.3228 16.2518 29.179 16.888 30.6502 18.0493L31.2467 17.4858C30.7356 16.7561 30.5295 15.873 30.6685 15.0079C30.8075 14.1428 31.2817 13.3572 31.999 12.8036C32.7163 12.25 33.6257 11.9678 34.5508 12.0117C35.4759 12.0556 36.3508 12.4226 37.0057 13.0413C37.6607 13.6601 38.0491 14.4865 38.0956 15.3605C38.1421 16.2344 37.8433 17.0935 37.2573 17.7712C36.6713 18.4488 35.8398 18.8968 34.924 19.0281C34.0083 19.1594 33.0735 18.9647 32.301 18.4818ZM32.1161 15.546C32.1161 15.9639 32.2473 16.3725 32.4931 16.72C32.7389 17.0675 33.0882 17.3383 33.497 17.4983C33.9057 17.6582 34.3555 17.7001 34.7894 17.6185C35.2233 17.537 35.6218 17.3357 35.9347 17.0402C36.2475 16.7447 36.4605 16.3681 36.5469 15.9582C36.6332 15.5483 36.5889 15.1234 36.4196 14.7373C36.2503 14.3512 35.9636 14.0211 35.5957 13.7889C35.2279 13.5567 34.7954 13.4328 34.353 13.4328C33.7597 13.4328 33.1908 13.6554 32.7713 14.0517C32.3518 14.448 32.1161 14.9855 32.1161 15.546ZM16.4581 17.6591C16.9006 17.6591 17.333 17.5352 17.7009 17.303C18.0687 17.0708 18.3554 16.7408 18.5247 16.3546C18.694 15.9685 18.7383 15.5436 18.652 15.1337C18.5657 14.7238 18.3527 14.3473 18.0398 14.0517C17.727 13.7562 17.3284 13.5549 16.8945 13.4734C16.4606 13.3919 16.0109 13.4337 15.6021 13.5937C15.1934 13.7536 14.8441 14.0244 14.5983 14.372C14.3525 14.7195 14.2213 15.128 14.2213 15.546C14.2213 16.1064 14.457 16.6439 14.8765 17.0402C15.2959 17.4365 15.8649 17.6591 16.4581 17.6591ZM18.695 32.4512C18.695 32.0333 18.5638 31.6247 18.318 31.2772C18.0722 30.9297 17.7229 30.6589 17.3142 30.4989C16.9054 30.339 16.4557 30.2971 16.0218 30.3787C15.5878 30.4602 15.1893 30.6615 14.8765 30.957C14.5636 31.2525 14.3506 31.6291 14.2643 32.039C14.178 32.4489 14.2223 32.8738 14.3916 33.2599C14.5609 33.646 14.8476 33.976 15.2154 34.2082C15.5833 34.4404 16.0157 34.5644 16.4581 34.5644C17.0514 34.5644 17.6203 34.3417 18.0398 33.9454C18.4593 33.5492 18.695 33.0117 18.695 32.4512ZM34.353 30.3381C33.9106 30.3381 33.4781 30.462 33.1103 30.6942C32.7424 30.9264 32.4557 31.2564 32.2864 31.6426C32.1171 32.0287 32.0728 32.4536 32.1591 32.8635C32.2454 33.2734 32.4585 33.6499 32.7713 33.9454C33.0841 34.241 33.4827 34.4422 33.9166 34.5238C34.3505 34.6053 34.8003 34.5635 35.209 34.4035C35.6177 34.2436 35.9671 33.9727 36.2129 33.6252C36.4586 33.2777 36.5898 32.8692 36.5898 32.4512C36.5898 31.8908 36.3542 31.3533 35.9347 30.957C35.5152 30.5607 34.9462 30.3381 34.353 30.3381ZM32.1161 23.9986C32.1161 22.7448 31.7226 21.5191 30.9852 20.4766C30.2478 19.434 29.1998 18.6215 27.9736 18.1417C26.7474 17.6619 25.3981 17.5363 24.0964 17.7809C22.7947 18.0255 21.599 18.6293 20.6605 19.5159C19.722 20.4025 19.0829 21.5321 18.8239 22.7618C18.565 23.9916 18.6979 25.2662 19.2058 26.4246C19.7137 27.583 20.5738 28.5731 21.6774 29.2697C22.7809 29.9663 24.0783 30.3381 25.4056 30.3381C27.1847 30.3362 28.8904 29.6677 30.1485 28.4792C31.4065 27.2907 32.1142 25.6794 32.1161 23.9986Z" fill="#D0D0D0"/>
</svg>
