<svg width="32" height="24" viewBox="0 0 32 24" fill="none" xmlns="http://www.w3.org/2000/svg">
<path d="M25.3333 9.36712V2.66669C25.3333 1.196 24.1374 0 22.6666 0H2.66663C1.19594 0 0 1.19594 0 2.66669V16C0 17.4707 1.19594 18.6667 2.66669 18.6667H17.6176C18.4911 21.74 21.3171 24 24.6667 24C25.9557 24 27.2233 23.6608 28.334 23.0182C28.6524 22.834 28.7618 22.4264 28.5768 22.1074C28.3926 21.7884 27.9844 21.6784 27.666 21.8646C26.7584 22.3894 25.7213 22.6667 24.6666 22.6667C21.358 22.6667 18.6666 19.9753 18.6666 16.6667C18.6666 13.3581 21.3581 10.6667 24.6666 10.6667C27.9752 10.6667 30.6666 13.3581 30.6666 16.6667V17.3334C30.6666 18.0684 30.0683 18.6667 29.3333 18.6667C28.5983 18.6667 28 18.0684 28 17.3334V14.6667C28 14.2982 27.7018 14 27.3333 14C27.154 14 26.9929 14.0726 26.8732 14.1875C26.2839 13.6624 25.5161 13.3333 24.6666 13.3333C22.8287 13.3333 21.3333 14.8287 21.3333 16.6666C21.3333 18.5045 22.8287 20 24.6667 20C25.6602 20 26.5436 19.5543 27.1548 18.8624C27.6377 19.5484 28.4323 20 29.3334 20C30.8041 20 32 18.8041 32 17.3333V16.6666C32 12.8481 29.0653 9.7055 25.3333 9.36712ZM2.66669 1.33331H22.6667C22.6944 1.33331 22.7177 1.3475 22.7451 1.34919L13.2149 9.17188C12.8757 9.38544 12.3841 9.34113 12.1634 9.20575L2.58912 1.34906C2.61619 1.34744 2.63919 1.33331 2.66669 1.33331ZM24 9.36712C20.2681 9.7055 17.3333 12.8481 17.3333 16.6667C17.3333 16.8917 17.3471 17.1134 17.3671 17.3334H2.66669C1.93169 17.3334 1.33337 16.7351 1.33337 16.0001V2.66669C1.33337 2.47787 1.37506 2.29956 1.44619 2.13669L11.3764 10.28C11.7644 10.5332 12.2104 10.6667 12.6667 10.6667C13.1056 10.6667 13.5346 10.5431 13.9122 10.3087C13.9499 10.2885 13.9857 10.2644 14.0196 10.2364L23.8871 2.13656C23.9583 2.29956 24.0001 2.47787 24.0001 2.66675V9.36712H24ZM24.6667 18.6667C23.5638 18.6667 22.6667 17.7696 22.6667 16.6667C22.6667 15.5638 23.5638 14.6667 24.6667 14.6667C25.7696 14.6667 26.6667 15.5638 26.6667 16.6667C26.6667 17.7696 25.7696 18.6667 24.6667 18.6667Z" fill="#056433"/>
</svg>
