<svg width="31" height="33" viewBox="0 0 31 33" fill="none" xmlns="http://www.w3.org/2000/svg">
<path d="M18.7209 7.20781H8.6709C8.3709 7.20781 8.1709 7.40781 8.1709 7.70781C8.1709 8.00781 8.3709 8.20781 8.6709 8.20781H18.7709C19.0709 8.20781 19.2709 8.00781 19.2709 7.70781C19.2209 7.45781 19.0209 7.20781 18.7209 7.20781Z" fill="#056433"/>
<path d="M18.7209 10.2578H8.6709C8.3709 10.2578 8.1709 10.4578 8.1709 10.7578C8.1709 11.0578 8.3709 11.2578 8.6709 11.2578H18.7709C19.0709 11.2578 19.2709 11.0578 19.2709 10.7578C19.2209 10.5078 19.0209 10.2578 18.7209 10.2578Z" fill="#056433"/>
<path d="M18.7209 13.3078H8.6709C8.3709 13.3078 8.1709 13.5078 8.1709 13.8078C8.1709 14.1078 8.3709 14.3078 8.6709 14.3078H18.7709C19.0709 14.3078 19.2709 14.1078 19.2709 13.8078C19.2209 13.5578 19.0209 13.3078 18.7209 13.3078Z" fill="#056433"/>
<path d="M14.2209 16.3578H8.6709C8.3709 16.3578 8.1709 16.5578 8.1709 16.8578C8.1709 17.1578 8.3709 17.3578 8.6709 17.3578H14.2709C14.5709 17.3578 14.7709 17.1578 14.7709 16.8578C14.7209 16.6078 14.5209 16.3578 14.2209 16.3578Z" fill="#056433"/>
<path d="M30.4207 21.6078L29.0207 21.5578C28.8207 20.8578 28.5707 20.2078 28.2207 19.5578L29.1707 18.5578C29.3707 18.3578 29.3207 18.0578 29.1707 17.8578L27.2207 15.9078C27.0207 15.7078 26.7207 15.7078 26.5207 15.9078L25.5207 16.8578C24.9207 16.5078 24.2207 16.2078 23.5207 16.0578L23.4707 14.6578C23.4707 14.4078 23.2207 14.1578 22.9707 14.1578H22.6707V5.30781C22.6707 5.30781 22.6707 5.30781 22.6707 5.25781C22.6707 5.20781 22.6707 5.15781 22.6707 5.15781C22.6707 5.15781 22.6707 5.10781 22.6207 5.10781C22.6207 5.05781 22.5707 5.05781 22.5707 5.00781L22.5207 4.95781C22.4707 4.95781 22.4707 4.90781 22.4207 4.90781C22.3707 4.90781 22.3707 4.85781 22.3207 4.85781C22.3207 4.85781 22.3207 4.85781 22.2707 4.85781C21.5207 4.70781 20.9707 4.00781 20.9707 3.30781C20.9707 2.45781 21.7207 1.75781 22.6707 1.75781C22.9707 1.75781 23.1707 1.55781 23.1707 1.25781C23.1707 0.957812 22.9707 0.757812 22.6707 0.757812H3.4207C1.9207 0.757812 0.720703 1.90781 0.720703 3.30781V24.8578C0.720703 26.4578 1.8707 27.7078 3.2707 27.7078H14.6707L14.0707 28.3578C13.8707 28.5578 13.9207 28.8578 14.1207 29.0578L14.1707 29.1078L16.0207 31.0078C16.2207 31.2078 16.5207 31.2078 16.7207 31.0078L17.7207 30.0578C18.3207 30.4078 19.0207 30.7078 19.6707 30.8578L19.7207 32.2578C19.7207 32.5078 19.9707 32.7578 20.2207 32.7578H22.9707C23.2207 32.7578 23.4707 32.5578 23.4707 32.2578L23.5207 30.8578C24.2207 30.6578 24.8707 30.4078 25.5207 30.0578L26.5207 31.0078C26.7207 31.2078 27.0207 31.2078 27.2207 31.0078L29.1707 29.0578C29.3707 28.8578 29.3707 28.5578 29.1707 28.3578L28.2207 27.3578C28.5707 26.7578 28.8707 26.0578 29.0207 25.3578L30.4207 25.3078C30.6707 25.3078 30.9207 25.0578 30.9207 24.8078V22.0578C30.9207 21.8078 30.7207 21.6078 30.4207 21.6078ZM20.2207 14.1578C19.9707 14.1578 19.7207 14.3578 19.7207 14.6578L19.6707 16.0578C18.9707 16.2578 18.3207 16.5078 17.6707 16.8578L16.6707 15.9078C16.4707 15.7078 16.1707 15.7078 15.9707 15.9078L14.0207 17.8578C13.8207 18.0578 13.8207 18.3578 14.0207 18.5578L14.9707 19.5578C14.6207 20.1578 14.3207 20.8578 14.1707 21.5578L12.7707 21.6078C12.5207 21.6078 12.2707 21.8578 12.2707 22.1078V24.8578C12.2707 25.1078 12.4707 25.3578 12.7707 25.3578L14.1707 25.4078C14.2707 25.8578 14.4707 26.3078 14.6707 26.7578H5.7207V5.80781H21.6707V14.1078H20.2207V14.1578ZM3.4207 1.75781H20.5707C20.2207 2.20781 20.0207 2.70781 20.0207 3.30781C20.0207 3.85781 20.2207 4.40781 20.5707 4.85781C13.6707 4.85781 31.1207 4.85781 3.4707 4.85781C2.5207 4.85781 1.7707 4.15781 1.7707 3.30781C1.7207 2.45781 2.4707 1.75781 3.4207 1.75781ZM1.7207 24.8578V5.25781C2.1707 5.60781 2.7707 5.80781 3.4207 5.80781H4.7207V26.7078H3.2707C2.4207 26.7078 1.7207 25.8578 1.7207 24.8578ZM29.9207 24.3578L28.6207 24.4078C28.3707 24.4078 28.2207 24.5578 28.1707 24.8078C27.9707 25.6578 27.6707 26.4578 27.2207 27.1578C27.0707 27.3578 27.1207 27.6078 27.2707 27.7578L28.1207 28.7078L26.8707 29.9578L25.9207 29.1078C25.7707 28.9578 25.5207 28.9078 25.3207 29.0578C24.5707 29.5578 23.8207 29.8578 22.9707 30.0078C22.7207 30.0578 22.5707 30.2578 22.5707 30.4578L22.5207 31.7578H20.7207L20.6707 30.4578C20.6707 30.2078 20.4707 30.0578 20.2707 30.0078C19.4207 29.8578 18.6707 29.5078 17.9207 29.0578C17.7207 28.9078 17.4707 28.9578 17.3207 29.1078L16.3707 29.9578L15.1207 28.7078C15.1707 28.6578 15.2207 28.6078 15.9707 27.7578C16.1207 27.6078 16.1207 27.3578 16.0207 27.1578C15.5707 26.4578 15.2207 25.6578 15.0707 24.8078C15.0207 24.6078 14.8207 24.4078 14.6207 24.4078L13.3207 24.3578V22.5578L14.6207 22.5078C14.8707 22.5078 15.0207 22.3578 15.0707 22.1078C15.2207 21.2578 15.5707 20.4578 16.0207 19.7578C16.1707 19.5578 16.1207 19.3078 15.9707 19.1578L15.1207 18.2078L16.3707 16.9578L17.3207 17.8078C17.4707 17.9578 17.7207 18.0078 17.9207 17.8578C18.6207 17.4078 19.4207 17.0578 20.2707 16.8578C20.4707 16.8078 20.6707 16.6078 20.6707 16.4078L20.7207 15.1078C20.8707 15.1078 22.5707 15.1078 22.5207 15.1078L22.5707 16.4078C22.5707 16.6578 22.7207 16.8078 22.9707 16.8578C23.8207 17.0578 24.6207 17.3578 25.3207 17.8578C25.5207 18.0078 25.7707 17.9578 25.9207 17.8078L26.8707 16.9578L28.1207 18.2078L27.2707 19.1578C27.1207 19.3078 27.1207 19.5578 27.2207 19.7578C27.6707 20.4578 28.0207 21.2578 28.1707 22.1078C28.2207 22.3078 28.4207 22.5078 28.6207 22.5078L29.9207 22.5578V24.3578Z" fill="#056433"/>
<path d="M21.6205 19.0578C19.2205 19.0578 17.2705 21.0078 17.2705 23.4578C17.2705 25.8578 19.2205 27.8078 21.6205 27.8078C24.0205 27.8078 26.0205 25.8578 26.0205 23.4578C25.9705 21.0578 24.0205 19.0578 21.6205 19.0578ZM21.6205 26.8078C19.7705 26.8078 18.2705 25.3078 18.2705 23.4578C18.2705 21.6078 19.7705 20.0578 21.6205 20.0578C23.4705 20.0578 25.0205 21.5578 25.0205 23.4578C24.9705 25.3078 23.4705 26.8078 21.6205 26.8078Z" fill="#056433"/>
</svg>
