<svg width="32" height="25" viewBox="0 0 32 25" fill="none" xmlns="http://www.w3.org/2000/svg">
<path d="M31.5 4.25H26.5V2.75C26.5 2.02065 26.2103 1.32118 25.6945 0.805456C25.1788 0.289731 24.4793 0 23.75 0C23.0207 0 22.3212 0.289731 21.8055 0.805456C21.2897 1.32118 21 2.02065 21 2.75V4.25H10.5C10.3674 4.25 10.2402 4.30268 10.1464 4.39645C10.0527 4.49021 10 4.61739 10 4.75V6.5C10 6.96413 9.81563 7.40925 9.48744 7.73744C9.15925 8.06563 8.71413 8.25 8.25 8.25C7.78587 8.25 7.34075 8.06563 7.01256 7.73744C6.68437 7.40925 6.5 6.96413 6.5 6.5V4.75C6.5 4.61739 6.44732 4.49021 6.35355 4.39645C6.25979 4.30268 6.13261 4.25 6 4.25H0.5C0.367392 4.25 0.240215 4.30268 0.146447 4.39645C0.0526784 4.49021 0 4.61739 0 4.75L0 20.25C0 20.3826 0.0526784 20.5098 0.146447 20.6036C0.240215 20.6973 0.367392 20.75 0.5 20.75H5.5V22.25C5.5 22.9793 5.78973 23.6788 6.30546 24.1945C6.82118 24.7103 7.52065 25 8.25 25C8.97935 25 9.67882 24.7103 10.1945 24.1945C10.7103 23.6788 11 22.9793 11 22.25V20.75H21.5C21.6326 20.75 21.7598 20.6973 21.8536 20.6036C21.9473 20.5098 22 20.3826 22 20.25V18.5C22 18.0359 22.1844 17.5908 22.5126 17.2626C22.8408 16.9344 23.2859 16.75 23.75 16.75C24.2141 16.75 24.6592 16.9344 24.9874 17.2626C25.3156 17.5908 25.5 18.0359 25.5 18.5V20.25C25.5 20.3826 25.5527 20.5098 25.6464 20.6036C25.7402 20.6973 25.8674 20.75 26 20.75H31.5C31.6326 20.75 31.7598 20.6973 31.8536 20.6036C31.9473 20.5098 32 20.3826 32 20.25V4.75C32 4.61739 31.9473 4.49021 31.8536 4.39645C31.7598 4.30268 31.6326 4.25 31.5 4.25ZM10.5 19.75C10.3674 19.75 10.2402 19.8027 10.1464 19.8964C10.0527 19.9902 10 20.1174 10 20.25V22.25C10 22.7141 9.81563 23.1592 9.48744 23.4874C9.15925 23.8156 8.71413 24 8.25 24C7.78587 24 7.34075 23.8156 7.01256 23.4874C6.68437 23.1592 6.5 22.7141 6.5 22.25V20.25C6.5 20.1174 6.44732 19.9902 6.35355 19.8964C6.25979 19.8027 6.13261 19.75 6 19.75H1V5.25H5.5V6.5C5.5 7.22935 5.78973 7.92882 6.30546 8.44454C6.82118 8.96027 7.52065 9.25 8.25 9.25C8.97935 9.25 9.67882 8.96027 10.1945 8.44454C10.7103 7.92882 11 7.22935 11 6.5V5.25H15.5V9.75H14.25C13.5207 9.75 12.8212 10.0397 12.3055 10.5555C11.7897 11.0712 11.5 11.7707 11.5 12.5C11.5 13.2293 11.7897 13.9288 12.3055 14.4445C12.8212 14.9603 13.5207 15.25 14.25 15.25H15.5V19.75H10.5ZM31 19.75H26.5V18.5C26.5 17.7707 26.2103 17.0712 25.6945 16.5555C25.1788 16.0397 24.4793 15.75 23.75 15.75C23.0207 15.75 22.3212 16.0397 21.8055 16.5555C21.2897 17.0712 21 17.7707 21 18.5V19.75H16.5V14.75C16.5 14.6174 16.4473 14.4902 16.3536 14.3964C16.2598 14.3027 16.1326 14.25 16 14.25H14.25C13.7859 14.25 13.3408 14.0656 13.0126 13.7374C12.6844 13.4092 12.5 12.9641 12.5 12.5C12.5 12.0359 12.6844 11.5908 13.0126 11.2626C13.3408 10.9344 13.7859 10.75 14.25 10.75H16C16.1326 10.75 16.2598 10.6973 16.3536 10.6036C16.4473 10.5098 16.5 10.3826 16.5 10.25V5.25H21.5C21.6326 5.25 21.7598 5.19732 21.8536 5.10355C21.9473 5.00979 22 4.88261 22 4.75V2.75C22 2.28587 22.1844 1.84075 22.5126 1.51256C22.8408 1.18437 23.2859 1 23.75 1C24.2141 1 24.6592 1.18437 24.9874 1.51256C25.3156 1.84075 25.5 2.28587 25.5 2.75V4.75C25.5 4.88261 25.5527 5.00979 25.6464 5.10355C25.7402 5.19732 25.8674 5.25 26 5.25H31V19.75Z" fill="#056433"/>
</svg>
