<svg width="20" height="20" viewBox="0 0 20 20" fill="none" xmlns="http://www.w3.org/2000/svg">
<g clip-path="url(#clip0_163_5922)">
<path d="M0.83431 6.25008C1.29431 6.25008 1.66764 5.87758 1.66764 5.41675V4.16675C1.66764 3.70675 2.04181 3.33341 2.50098 3.33341H3.75098C4.21098 3.33341 4.58431 2.96091 4.58431 2.50008C4.58431 2.03925 4.21098 1.66675 3.75098 1.66675H2.50098C1.12264 1.66675 0.000976562 2.78841 0.000976562 4.16675V5.41675C0.000976562 5.87758 0.37431 6.25008 0.83431 6.25008Z" fill="black"/>
<path d="M17.5013 1.66675H16.2513C15.7913 1.66675 15.418 2.03925 15.418 2.50008C15.418 2.96091 15.7913 3.33341 16.2513 3.33341H17.5013C17.9605 3.33341 18.3346 3.70675 18.3346 4.16675V5.41675C18.3346 5.87758 18.708 6.25008 19.168 6.25008C19.628 6.25008 20.0013 5.87758 20.0013 5.41675V4.16675C20.0013 2.78841 18.8796 1.66675 17.5013 1.66675Z" fill="black"/>
<path d="M0.000976562 15.8333C0.000976562 17.2117 1.12264 18.3333 2.50098 18.3333H3.75098C4.21098 18.3333 4.58431 17.9608 4.58431 17.5C4.58431 17.0392 4.21098 16.6667 3.75098 16.6667H2.50098C2.04181 16.6667 1.66764 16.2933 1.66764 15.8333V14.5833C1.66764 14.1225 1.29431 13.75 0.83431 13.75C0.37431 13.75 0.000976562 14.1225 0.000976562 14.5833V15.8333Z" fill="black"/>
<path d="M19.168 13.75C18.708 13.75 18.3346 14.1225 18.3346 14.5833V15.8333C18.3346 16.2933 17.9605 16.6667 17.5013 16.6667H16.2513C15.7913 16.6667 15.418 17.0392 15.418 17.5C15.418 17.9608 15.7913 18.3333 16.2513 18.3333H17.5013C18.8796 18.3333 20.0013 17.2117 20.0013 15.8333V14.5833C20.0013 14.1225 19.628 13.75 19.168 13.75Z" fill="black"/>
<path d="M9.9998 15.0583C13.2081 15.0583 15.9415 13.0417 16.6498 10.15C16.6748 10.05 16.6748 9.94998 16.6498 9.84998C15.9415 6.95832 13.2081 4.94165 9.9998 4.94165C6.79147 4.94165 4.05814 6.95832 3.3498 9.84998C3.3248 9.94998 3.3248 10.05 3.3498 10.15C4.05814 13.0417 6.79147 15.0583 9.9998 15.0583ZM9.9998 7.49998C11.3748 7.49998 12.4998 8.62498 12.4998 9.99998C12.4998 11.375 11.3748 12.5 9.9998 12.5C8.6248 12.5 7.4998 11.375 7.4998 9.99998C7.4998 8.62498 8.6248 7.49998 9.9998 7.49998Z" fill="black"/>
</g>
<defs>
<clipPath id="clip0_163_5922">
<rect width="20" height="20" fill="white"/>
</clipPath>
</defs>
</svg>
