<svg width="32" height="33" viewBox="0 0 32 33" fill="none" xmlns="http://www.w3.org/2000/svg">
<path d="M20.9467 14.8876C21.2228 14.8876 21.4467 15.1114 21.4467 15.3876V16.1236C22.77 16.3605 23.7778 17.5191 23.7778 18.9095C23.7778 19.1856 23.5539 19.4095 23.2778 19.4095C23.0016 19.4095 22.7778 19.1856 22.7778 18.9095C22.7778 17.8999 21.9563 17.0784 20.9467 17.0784C19.9371 17.0784 19.1156 17.8999 19.1156 18.9095C19.1156 19.9191 19.9371 20.7406 20.9467 20.7406C22.5077 20.7406 23.7778 22.0106 23.7778 23.5716C23.7778 24.962 22.7699 26.1207 21.4467 26.3576V27.0936C21.4467 27.3698 21.2228 27.5936 20.9467 27.5936C20.6706 27.5936 20.4467 27.3698 20.4467 27.0936V26.3576C19.1234 26.1207 18.1156 24.9621 18.1156 23.5716C18.1156 23.2955 18.3395 23.0716 18.6156 23.0716C18.8918 23.0716 19.1156 23.2955 19.1156 23.5716C19.1156 24.5813 19.9371 25.4027 20.9467 25.4027C21.9564 25.4027 22.7778 24.5812 22.7778 23.5716C22.7778 22.562 21.9563 21.7406 20.9467 21.7406C19.3856 21.7406 18.1156 20.4706 18.1156 18.9095C18.1156 17.5191 19.1234 16.3605 20.4467 16.1236V15.3875C20.4467 15.1114 20.6706 14.8876 20.9467 14.8876ZM20.9467 10.1873C27.0415 10.1873 32 15.1458 32 21.2406C32 27.3355 27.0415 32.294 20.9467 32.294C14.8519 32.294 9.89338 27.3355 9.89338 21.2406C9.89338 15.1458 14.8519 10.1873 20.9467 10.1873ZM20.9467 11.1873C15.4032 11.1873 10.8934 15.6972 10.8934 21.2406C10.8934 26.7841 15.4032 31.294 20.9467 31.294C26.4901 31.294 31 26.7841 31 21.2406C31 15.6972 26.4901 11.1873 20.9467 11.1873ZM1.86637 31.2153H13.1894C13.4656 31.2153 13.6894 30.9914 13.6894 30.7153C13.6894 30.4392 13.4656 30.2153 13.1894 30.2153H1.86637C1.38869 30.2153 1.00006 29.8267 1.00006 29.349V2.20225C1.00006 1.72456 1.38869 1.33594 1.86637 1.33594H22.1808C22.6585 1.33594 23.0471 1.72456 23.0471 2.20225V9.14863C23.0471 9.42475 23.271 9.64863 23.5471 9.64863C23.8232 9.64863 24.0471 9.42475 24.0471 9.14863V2.20225C24.0471 1.17319 23.2099 0.335938 22.1808 0.335938H1.86637C0.83725 0.335938 0 1.17313 0 2.20225V29.349C0 30.3781 0.83725 31.2153 1.86637 31.2153ZM3.74069 7.5615H20.3062C20.5824 7.5615 20.8062 7.33763 20.8062 7.0615C20.8062 6.78538 20.5824 6.5615 20.3062 6.5615H3.74069C3.46456 6.5615 3.24069 6.78538 3.24069 7.0615C3.24069 7.33763 3.46456 7.5615 3.74069 7.5615ZM8.8135 15.8739C8.8135 15.5978 8.58963 15.3739 8.3135 15.3739H3.74069C3.46456 15.3739 3.24069 15.5978 3.24069 15.8739C3.24069 16.1501 3.46456 16.3739 3.74069 16.3739H8.3135C8.58963 16.3739 8.8135 16.1501 8.8135 15.8739ZM3.74069 20.7801H7.258C7.53412 20.7801 7.758 20.5562 7.758 20.2801C7.758 20.0039 7.53412 19.7801 7.258 19.7801H3.74069C3.46456 19.7801 3.24069 20.0039 3.24069 20.2801C3.24069 20.5562 3.46456 20.7801 3.74069 20.7801ZM3.74069 25.1863H7.66044C7.93656 25.1863 8.16044 24.9624 8.16044 24.6863C8.16044 24.4102 7.93656 24.1863 7.66044 24.1863H3.74069C3.46456 24.1863 3.24069 24.4102 3.24069 24.6863C3.24069 24.9624 3.46456 25.1863 3.74069 25.1863ZM11.9886 11.2982C11.9886 11.0221 11.7647 10.7982 11.4886 10.7982H3.74069C3.46456 10.7982 3.24069 11.0221 3.24069 11.2982C3.24069 11.5743 3.46456 11.7982 3.74069 11.7982H11.4886C11.7648 11.7982 11.9886 11.5743 11.9886 11.2982Z" fill="#056433"/>
</svg>
