<svg width="34" height="32" viewBox="0 0 34 32" fill="none" xmlns="http://www.w3.org/2000/svg">
<ellipse cx="16.9366" cy="16" rx="16.9366" ry="16" fill="#056433"/>
<path d="M24.8242 11.8125H22.2909L22.2771 10.8093C22.2753 9.25997 20.9404 8 19.2999 8C17.6584 8 16.3228 9.26169 16.3228 10.8125C16.3228 10.8145 16.3228 10.8166 16.3228 10.8186L16.3365 11.8125H13.8088C13.5348 11.8125 13.3126 12.0224 13.3126 12.2812V15.5625H8.87998C8.60595 15.5625 8.38379 15.7724 8.38379 16.0312V22.5938C8.38379 23.3692 9.05156 24 9.87236 24H17.8775H18.8699H23.8318C24.6526 24 25.3204 23.3692 25.3204 22.5938V12.2812C25.3204 12.0224 25.0982 11.8125 24.8242 11.8125ZM19.2999 8.9375C20.3943 8.9375 21.2847 9.77863 21.2847 10.8125C21.2847 10.8145 21.2847 10.8166 21.2847 10.8186L21.2984 11.8125H17.329L17.3152 10.8097C17.3168 9.77706 18.2065 8.9375 19.2999 8.9375ZM19.3661 22.5938C19.3661 22.8522 19.1435 23.0625 18.8699 23.0625H17.8775H9.87236C9.59876 23.0625 9.37617 22.8522 9.37617 22.5938V16.5H19.3661V22.5938ZM24.328 22.5938C24.328 22.8522 24.1054 23.0625 23.8318 23.0625H20.2731C20.3282 22.9158 20.3585 22.7581 20.3585 22.5938V16.0312C20.3585 15.7724 20.1363 15.5625 19.8623 15.5625H14.305V12.75H16.3494L16.3559 13.2248C16.3594 13.4816 16.5809 13.6875 16.8519 13.6875C16.8541 13.6875 16.8563 13.6875 16.8585 13.6875C17.1326 13.6841 17.3518 13.4715 17.3482 13.2127L17.3419 12.75H21.3113L21.3178 13.2248C21.3213 13.4816 21.5428 13.6875 21.8138 13.6875C21.816 13.6875 21.8182 13.6875 21.8204 13.6875C22.0945 13.6841 22.3137 13.4715 22.3101 13.2127L22.3037 12.75H24.328V22.5938Z" fill="white"/>
<path d="M16.8526 17.4375C16.5786 17.4375 16.3564 17.6474 16.3564 17.9062V18.375C16.3564 19.4089 15.4661 20.25 14.3717 20.25C13.2773 20.25 12.3869 19.4089 12.3869 18.375V17.9062C12.3869 17.6474 12.1647 17.4375 11.8907 17.4375C11.6167 17.4375 11.3945 17.6474 11.3945 17.9062V18.375C11.3945 19.9258 12.7301 21.1875 14.3717 21.1875C16.0133 21.1875 17.3488 19.9258 17.3488 18.375V17.9062C17.3488 17.6474 17.1266 17.4375 16.8526 17.4375Z" fill="white"/>
</svg>
