<svg width="51" height="48" viewBox="0 0 51 48" fill="none" xmlns="http://www.w3.org/2000/svg">
<path d="M37.3608 17.7188H33.5608L33.5401 16.214C33.5375 13.89 31.5352 12 29.0744 12C26.612 12 24.6087 13.8925 24.6087 16.2188C24.6087 16.2218 24.6087 16.2248 24.6088 16.2279L24.6293 17.7188H20.8377C20.4267 17.7188 20.0934 18.0336 20.0934 18.4219V23.3438H13.4445C13.0334 23.3438 12.7002 23.6586 12.7002 24.0469V33.8906C12.7002 35.0537 13.7019 36 14.933 36H26.9408H28.4294H35.8722C37.1034 36 38.1051 35.0537 38.1051 33.8906V18.4219C38.1051 18.0336 37.7718 17.7188 37.3608 17.7188ZM29.0744 13.4062C30.716 13.4062 32.0516 14.6679 32.0516 16.2188C32.0516 16.2218 32.0516 16.2248 32.0516 16.2279L32.0722 17.7188H26.118L26.0973 16.2145C26.0997 14.6656 27.4343 13.4062 29.0744 13.4062ZM29.1737 33.8906C29.1737 34.2783 28.8398 34.5938 28.4294 34.5938H26.9408H14.933C14.5226 34.5938 14.1888 34.2783 14.1888 33.8906V24.75H29.1737V33.8906ZM36.6165 33.8906C36.6165 34.2783 36.2826 34.5938 35.8722 34.5938H30.5342C30.6168 34.3737 30.6622 34.1371 30.6622 33.8906V24.0469C30.6622 23.6586 30.329 23.3438 29.918 23.3438H21.582V19.125H24.6486L24.6584 19.8373C24.6637 20.2224 24.9959 20.5312 25.4024 20.5312C25.4057 20.5312 25.409 20.5312 25.4123 20.5312C25.8234 20.5261 26.1522 20.2073 26.1469 19.819L26.1373 19.125H32.0915L32.1012 19.8373C32.1065 20.2224 32.4387 20.5312 32.8453 20.5312C32.8485 20.5312 32.8518 20.5312 32.8551 20.5312C33.2662 20.5261 33.5951 20.2073 33.5897 19.819L33.5801 19.125H36.6165V33.8906Z" fill="#D0D0D0"/>
<path d="M25.4039 26.1562C24.9929 26.1562 24.6596 26.4711 24.6596 26.8594V27.5625C24.6596 29.1133 23.3241 30.375 21.6825 30.375C20.0409 30.375 18.7054 29.1133 18.7054 27.5625V26.8594C18.7054 26.4711 18.3721 26.1562 17.9611 26.1562C17.55 26.1562 17.2168 26.4711 17.2168 26.8594V27.5625C17.2168 29.8887 19.2201 31.7812 21.6825 31.7812C24.1449 31.7812 26.1482 29.8887 26.1482 27.5625V26.8594C26.1482 26.4711 25.815 26.1562 25.4039 26.1562Z" fill="#D0D0D0"/>
</svg>
