<svg width="26" height="24" viewBox="0 0 26 24" fill="none" xmlns="http://www.w3.org/2000/svg">
<path d="M15.6849 13.0552V13.7596C15.6841 14.2264 15.4875 14.6738 15.1381 15.0039C14.7887 15.334 14.315 15.5198 13.8209 15.5205H13.4481V16.2249C13.4481 16.4117 13.3695 16.5909 13.2297 16.723C13.0898 16.8551 12.9002 16.9293 12.7024 16.9293C12.5047 16.9293 12.315 16.8551 12.1752 16.723C12.0354 16.5909 11.9568 16.4117 11.9568 16.2249V15.5205H10.8384C10.6406 15.5205 10.451 15.4463 10.3112 15.3142C10.1713 15.1821 10.0928 15.0029 10.0928 14.8161C10.0928 14.6293 10.1713 14.4502 10.3112 14.3181C10.451 14.186 10.6406 14.1117 10.8384 14.1117H13.8209C13.9197 14.1117 14.0146 14.0746 14.0845 14.0086C14.1544 13.9425 14.1937 13.853 14.1937 13.7596V13.0552C14.1937 12.9618 14.1544 12.8722 14.0845 12.8061C14.0146 12.7401 13.9197 12.703 13.8209 12.703H11.584C11.0899 12.7022 10.6162 12.5165 10.2668 12.1864C9.9174 11.8563 9.72075 11.4088 9.71997 10.942V10.2376C9.72075 9.77082 9.9174 9.32334 10.2668 8.99326C10.6162 8.66318 11.0899 8.47741 11.584 8.47666H11.9568V7.68493C11.9568 7.49812 12.0354 7.31895 12.1752 7.18686C12.315 7.05476 12.5047 6.98055 12.7024 6.98055C12.9002 6.98055 13.0898 7.05476 13.2297 7.18686C13.3695 7.31895 13.4481 7.49812 13.4481 7.68493V8.47666H14.5665C14.7642 8.47666 14.9539 8.55087 15.0937 8.68297C15.2335 8.81507 15.3121 8.99423 15.3121 9.18105C15.3121 9.36786 15.2335 9.54703 15.0937 9.67912C14.9539 9.81122 14.7642 9.88543 14.5665 9.88543H11.584C11.4851 9.88543 11.3903 9.92254 11.3204 9.98859C11.2505 10.0546 11.2112 10.1442 11.2112 10.2376V10.942C11.2112 11.0354 11.2505 11.125 11.3204 11.1911C11.3903 11.2571 11.4851 11.2942 11.584 11.2942H13.8209C14.315 11.2949 14.7887 11.4807 15.1381 11.8108C15.4875 12.1409 15.6841 12.5884 15.6849 13.0552ZM19.5979 6.48184L19.0014 7.04535C20.2307 8.43519 20.9042 10.1888 20.9042 12C20.9042 13.8112 20.2307 15.5648 19.0014 16.9546L19.5979 17.5182C20.3712 17.0345 21.3072 16.8394 22.2241 16.9707C23.1411 17.102 23.9738 17.5504 24.5606 18.2289C25.1475 18.9073 25.4467 19.7675 25.4002 20.6426C25.3537 21.5176 24.9648 22.3452 24.309 22.9647C23.6532 23.5843 22.7772 23.9516 21.8509 23.9956C20.9246 24.0395 20.0141 23.7568 19.2959 23.2024C18.5777 22.648 18.1031 21.8614 17.9641 20.9952C17.8251 20.1289 18.0316 19.2447 18.5436 18.5142L17.9471 17.9507C16.4759 19.112 14.6196 19.7482 12.7024 19.7482C10.7852 19.7482 8.92896 19.112 7.45776 17.9507L6.86127 18.5142C7.37241 19.2439 7.57846 20.127 7.43947 20.9921C7.30047 21.8572 6.82633 22.6428 6.10901 23.1964C5.39168 23.75 4.48228 24.0322 3.55719 23.9883C2.63209 23.9444 1.75723 23.5774 1.10226 22.9587C0.447292 22.3399 0.0589027 21.5135 0.0124149 20.6395C-0.0340728 19.7656 0.264654 18.9065 0.850661 18.2288C1.43667 17.5512 2.26819 17.1032 3.18396 16.9719C4.09974 16.8406 5.0345 17.0353 5.80696 17.5182L6.40346 16.9546C5.17414 15.5648 4.50068 13.8112 4.50068 12C4.50068 10.1888 5.17414 8.43519 6.40346 7.04535L5.80696 6.48184C5.03363 6.96551 4.09771 7.16061 3.18074 7.02929C2.26377 6.89797 1.4311 6.4496 0.844256 5.77114C0.257411 5.09268 -0.0417838 4.23249 0.0047072 3.35743C0.0511982 2.48237 0.44006 1.65481 1.09587 1.03527C1.75167 0.415725 2.62768 0.048367 3.55396 0.0044469C4.48025 -0.0394732 5.39079 0.243176 6.10896 0.797569C6.82714 1.35196 7.30176 2.13858 7.44076 3.00485C7.57977 3.87111 7.37325 4.75528 6.86127 5.48584L7.45776 6.04935C8.92896 4.88802 10.7852 4.2518 12.7024 4.2518C14.6196 4.2518 16.4759 4.88802 17.9471 6.04935L18.5436 5.48584C18.0325 4.75609 17.8264 3.87303 17.9654 3.00789C18.1044 2.14276 18.5785 1.35722 19.2959 0.803619C20.0132 0.250019 20.9226 -0.0321886 21.8477 0.0117284C22.7728 0.0556454 23.6477 0.422557 24.3026 1.0413C24.9576 1.66005 25.346 2.48654 25.3925 3.36048C25.4389 4.23442 25.1402 5.09352 24.5542 5.77118C23.9682 6.44884 23.1367 6.89676 22.2209 7.02807C21.3051 7.15938 20.3704 6.96472 19.5979 6.48184ZM19.413 3.54596C19.413 3.9639 19.5442 4.37246 19.79 4.71997C20.0358 5.06748 20.3851 5.33832 20.7939 5.49826C21.2026 5.6582 21.6523 5.70005 22.0862 5.61852C22.5202 5.53698 22.9187 5.33572 23.2316 5.04019C23.5444 4.74466 23.7574 4.36813 23.8437 3.95822C23.93 3.54831 23.8857 3.12342 23.7164 2.73729C23.5471 2.35116 23.2604 2.02113 22.8926 1.78893C22.5247 1.55674 22.0923 1.4328 21.6499 1.4328C21.0566 1.4328 20.4877 1.65544 20.0682 2.05173C19.6487 2.44803 19.413 2.98552 19.413 3.54596ZM3.75502 5.65912C4.19743 5.65912 4.6299 5.53518 4.99775 5.30299C5.3656 5.07079 5.6523 4.74076 5.82161 4.35463C5.99091 3.9685 6.0352 3.54362 5.94889 3.1337C5.86259 2.72379 5.64955 2.34726 5.33672 2.05173C5.02389 1.7562 4.62532 1.55494 4.19141 1.47341C3.7575 1.39187 3.30774 1.43372 2.89901 1.59366C2.49028 1.7536 2.14093 2.02445 1.89514 2.37195C1.64936 2.71946 1.51817 3.12802 1.51817 3.54596C1.51817 4.10641 1.75383 4.6439 2.17333 5.04019C2.59282 5.43648 3.16177 5.65912 3.75502 5.65912ZM5.99188 20.4512C5.99188 20.0333 5.86069 19.6247 5.6149 19.2772C5.36911 18.9297 5.01976 18.6589 4.61103 18.4989C4.2023 18.339 3.75254 18.2971 3.31863 18.3787C2.88472 18.4602 2.48616 18.6615 2.17333 18.957C1.8605 19.2525 1.64746 19.6291 1.56115 20.039C1.47484 20.4489 1.51913 20.8738 1.68844 21.2599C1.85774 21.646 2.14444 21.976 2.51229 22.2082C2.88014 22.4404 3.31261 22.5644 3.75502 22.5644C4.34827 22.5644 4.91722 22.3417 5.33672 21.9454C5.75621 21.5492 5.99188 21.0117 5.99188 20.4512ZM21.6499 18.3381C21.2074 18.3381 20.775 18.462 20.4071 18.6942C20.0393 18.9264 19.7526 19.2564 19.5833 19.6426C19.414 20.0287 19.3697 20.4536 19.456 20.8635C19.5423 21.2734 19.7553 21.6499 20.0682 21.9454C20.381 22.241 20.7796 22.4422 21.2135 22.5238C21.6474 22.6053 22.0971 22.5635 22.5059 22.4035C22.9146 22.2436 23.2639 21.9727 23.5097 21.6252C23.7555 21.2777 23.8867 20.8692 23.8867 20.4512C23.8867 19.8908 23.651 19.3533 23.2316 18.957C22.8121 18.5607 22.2431 18.3381 21.6499 18.3381ZM19.413 11.9986C19.413 10.7448 19.0194 9.51909 18.2821 8.47657C17.5447 7.43405 16.4967 6.6215 15.2705 6.14168C14.0443 5.66186 12.695 5.53632 11.3933 5.78093C10.0916 6.02554 8.89584 6.62932 7.95735 7.51591C7.01887 8.4025 6.37975 9.53208 6.12082 10.7618C5.86189 11.9916 5.99478 13.2662 6.50269 14.4246C7.01059 15.583 7.8707 16.5731 8.97425 17.2697C10.0778 17.9663 11.3752 18.3381 12.7024 18.3381C14.4816 18.3362 16.1873 17.6677 17.4453 16.4792C18.7034 15.2907 19.411 13.6794 19.413 11.9986Z" fill="#056433"/>
</svg>
