<svg width="26" height="24" viewBox="0 0 26 24" fill="none" xmlns="http://www.w3.org/2000/svg">
<path d="M24.6606 5.71875H20.8606L20.8399 4.21402C20.8373 1.88995 18.835 0 16.3742 0C13.9118 0 11.9085 1.89253 11.9085 4.21875C11.9085 4.2218 11.9085 4.22484 11.9086 4.22789L11.9291 5.71875H8.1375C7.72646 5.71875 7.39322 6.03356 7.39322 6.42188V11.3438H0.744283C0.333241 11.3438 0 11.6586 0 12.0469V21.8906C0 23.0537 1.00166 24 2.23285 24H14.2406H15.7292H23.172C24.4032 24 25.4049 23.0537 25.4049 21.8906V6.42188C25.4049 6.03356 25.0716 5.71875 24.6606 5.71875ZM16.3742 1.40625C18.0158 1.40625 19.3514 2.66794 19.3514 4.21875C19.3514 4.2218 19.3514 4.22484 19.3514 4.22789L19.372 5.71875H13.4178L13.3971 4.21448C13.3995 2.66559 14.7341 1.40625 16.3742 1.40625ZM16.4735 21.8906C16.4735 22.2783 16.1396 22.5938 15.7292 22.5938H14.2406H2.23285C1.82245 22.5938 1.48857 22.2783 1.48857 21.8906V12.75H16.4735V21.8906ZM23.9163 21.8906C23.9163 22.2783 23.5824 22.5938 23.172 22.5938H17.834C17.9166 22.3737 17.962 22.1371 17.962 21.8906V12.0469C17.962 11.6586 17.6288 11.3438 17.2178 11.3438H8.88178V7.125H11.9484L11.9582 7.83727C11.9635 8.22244 12.2957 8.53125 12.7022 8.53125C12.7055 8.53125 12.7088 8.53125 12.7121 8.5312C13.1232 8.52614 13.452 8.2073 13.4467 7.81898L13.4371 7.125H19.3913L19.401 7.83727C19.4063 8.22244 19.7385 8.53125 20.1451 8.53125C20.1483 8.53125 20.1516 8.53125 20.1549 8.5312C20.566 8.52614 20.8949 8.2073 20.8895 7.81898L20.8799 7.125H23.9163V21.8906Z" fill="#056433"/>
<path d="M12.7042 14.1562C12.2932 14.1562 11.9599 14.4711 11.9599 14.8594V15.5625C11.9599 17.1133 10.6244 18.375 8.98279 18.375C7.3412 18.375 6.00566 17.1133 6.00566 15.5625V14.8594C6.00566 14.4711 5.67242 14.1562 5.26137 14.1562C4.85033 14.1562 4.51709 14.4711 4.51709 14.8594V15.5625C4.51709 17.8887 6.5204 19.7812 8.98279 19.7812C11.4452 19.7812 13.4485 17.8887 13.4485 15.5625V14.8594C13.4485 14.4711 13.1153 14.1562 12.7042 14.1562Z" fill="#056433"/>
</svg>
