<svg width="34" height="32" viewBox="0 0 34 32" fill="none" xmlns="http://www.w3.org/2000/svg">
<ellipse cx="16.9366" cy="16" rx="16.9366" ry="16" fill="#056433"/>
<path d="M16.9299 10.4428H18.9033L18.1559 11.15C17.9624 11.3333 17.9626 11.63 18.1566 11.813C18.3502 11.9955 18.6644 11.9959 18.8582 11.8124L20.4499 10.3062C20.6462 10.1205 20.6436 9.81544 20.4385 9.63307L18.8582 8.13759C18.6647 7.95436 18.3505 7.95412 18.1566 8.13698C17.9626 8.31996 17.9624 8.61671 18.1559 8.79994L18.9013 9.50526C16.6528 9.50526 16.9332 9.50514 16.9086 9.50514C11.6631 9.50514 8.33349 14.8983 10.9638 19.2333C11.1 19.4578 11.403 19.5356 11.641 19.4069C11.8788 19.2781 11.961 18.9917 11.8248 18.7671C9.56103 15.0364 12.4587 10.4215 16.9299 10.4428Z" fill="white"/>
<path d="M22.8673 12.7666C22.7311 12.5421 22.4278 12.4644 22.1901 12.593C21.9523 12.7218 21.8701 13.0083 22.0065 13.2329C24.253 16.9353 21.4176 21.5572 16.9158 21.5572H14.9278L15.6752 20.85C15.8689 20.6667 15.8686 20.37 15.6746 20.187C15.4807 20.0042 15.1664 20.0044 14.9729 20.1876L13.3812 21.6938C13.1866 21.8779 13.1856 22.1835 13.3932 22.3675L14.9729 23.8624C15.1664 24.0455 15.4806 24.046 15.6746 23.863C15.8686 23.68 15.8689 23.3833 15.6753 23.2001L14.93 22.4947H16.922C22.1702 22.4946 25.4971 17.1007 22.8673 12.7666Z" fill="white"/>
<path d="M16.4192 14.5937H18.404C18.6779 14.5937 18.9002 14.3838 18.9002 14.125C18.9002 13.8661 18.6779 13.6562 18.404 13.6562H17.4116V13.1875C17.4116 12.9286 17.1894 12.7188 16.9154 12.7188C16.6413 12.7188 16.4192 12.9286 16.4192 13.1875V13.6562C15.5983 13.6562 14.9307 14.2871 14.9307 15.0625C14.9307 15.8379 15.5983 16.4687 16.4192 16.4687H17.4115C17.6852 16.4687 17.9078 16.6789 17.9078 16.9375C17.9078 17.196 17.6864 17.4064 17.4115 17.4064C16.8987 17.4064 16.9154 17.4062 16.9154 17.4062C16.9146 17.4062 16.9139 17.4064 16.9131 17.4064C16.8938 17.4064 15.4157 17.4062 15.4269 17.4062C15.1528 17.4062 14.9307 17.6161 14.9307 17.8749C14.9305 18.1338 15.1527 18.3436 15.4267 18.3437H16.4192V18.8125C16.4192 19.0713 16.6413 19.2812 16.9154 19.2812C17.1894 19.2812 17.4116 19.0713 17.4116 18.8125V18.3439C18.2342 18.3439 18.9002 17.7151 18.9002 16.9375C18.9002 16.1621 18.2323 15.5312 17.4115 15.5312H16.4192C16.1455 15.5312 15.923 15.3209 15.923 15.0625C15.923 14.804 16.1455 14.5937 16.4192 14.5937Z" fill="white"/>
</svg>
