<svg width="33" height="33" viewBox="0 0 33 33" fill="none" xmlns="http://www.w3.org/2000/svg">
<path d="M27.3076 14.6047L23.7364 18.1746L22.1876 16.6156C22.0674 16.4956 21.9045 16.4282 21.7346 16.4284C21.5648 16.4285 21.402 16.4961 21.282 16.6162C21.162 16.7364 21.0946 16.8993 21.0947 17.0692C21.0948 17.239 21.1624 17.4018 21.2826 17.5218L23.2935 19.5327C23.4135 19.6527 23.5763 19.7201 23.746 19.7201C23.9157 19.7201 24.0784 19.6527 24.1984 19.5327L28.2228 15.5097C28.2839 15.4506 28.3326 15.38 28.3662 15.3019C28.3997 15.2239 28.4174 15.1399 28.4181 15.0549C28.4189 14.9699 28.4027 14.8856 28.3705 14.807C28.3383 14.7283 28.2908 14.6569 28.2307 14.5968C28.1706 14.5367 28.0991 14.4892 28.0205 14.457C27.9418 14.4248 27.8576 14.4086 27.7726 14.4094C27.6876 14.4101 27.6036 14.4278 27.5255 14.4613C27.4475 14.4948 27.3768 14.5436 27.3178 14.6047H27.3076Z" fill="#056433"/>
<path d="M32.4277 17.0687C32.4244 15.2555 31.7802 13.5019 30.6091 12.1176C29.438 10.7334 27.8153 9.80762 26.0277 9.50391V6.18871C26.0279 6.10461 26.0115 6.0213 25.9794 5.94355C25.9473 5.8658 25.9002 5.79514 25.8409 5.73559L20.7209 0.615592C20.6613 0.556198 20.5906 0.509122 20.5129 0.477055C20.4351 0.444989 20.3518 0.428562 20.2677 0.428712H4.90773C4.738 0.428712 4.57521 0.49614 4.45519 0.616164C4.33516 0.736187 4.26773 0.898973 4.26773 1.06871V4.26871H1.06773C0.897996 4.26871 0.735209 4.33614 0.615186 4.45616C0.495163 4.57619 0.427734 4.73897 0.427734 4.90871V31.7887C0.427734 31.9584 0.495163 32.1212 0.615186 32.2413C0.735209 32.3613 0.897996 32.4287 1.06773 32.4287H22.8277C22.9975 32.4287 23.1603 32.3613 23.2803 32.2413C23.4003 32.1212 23.4677 31.9584 23.4677 31.7887V28.5887H25.3877C25.5575 28.5887 25.7203 28.5213 25.8403 28.4013C25.9603 28.2812 26.0277 28.1184 26.0277 27.9487V24.6335C27.8153 24.3298 29.438 23.404 30.6091 22.0198C31.7802 20.6355 32.4244 18.8819 32.4277 17.0687ZM20.9077 2.61367L23.8428 5.54871H20.9077V2.61367ZM22.1877 31.1487H1.70773V5.54871H4.26773V27.9487C4.26773 28.1184 4.33516 28.2812 4.45519 28.4013C4.57521 28.5213 4.738 28.5887 4.90773 28.5887H22.1877V31.1487ZM24.7477 27.3087H5.54773V1.70871H19.6277V6.18871C19.6277 6.35845 19.6952 6.52124 19.8152 6.64126C19.9352 6.76128 20.098 6.82871 20.2677 6.82871H24.7477V9.38871C22.7109 9.38871 20.7574 10.1979 19.3172 11.6381C17.8769 13.0784 17.0677 15.0318 17.0677 17.0687C17.0677 19.1056 17.8769 21.059 19.3172 22.4993C20.7574 23.9396 22.7109 24.7487 24.7477 24.7487V27.3087ZM24.7477 23.4687C23.4819 23.4687 22.2446 23.0934 21.1921 22.3901C20.1396 21.6869 19.3193 20.6873 18.8349 19.5179C18.3505 18.3484 18.2238 17.0616 18.4707 15.8201C18.7177 14.5787 19.3272 13.4383 20.2222 12.5432C21.1173 11.6482 22.2577 11.0386 23.4992 10.7917C24.7406 10.5447 26.0275 10.6715 27.1969 11.1559C28.3664 11.6403 29.3659 12.4606 30.0691 13.5131C30.7724 14.5655 31.1477 15.8029 31.1477 17.0687C31.1457 18.7655 30.4708 20.3922 29.271 21.5919C28.0712 22.7917 26.4445 23.4667 24.7477 23.4687Z" fill="#056433"/>
<path d="M11.9474 15.9756L9.96597 17.9647L9.19797 17.1967C9.07796 17.0766 8.91513 17.009 8.7453 17.0089C8.57547 17.0087 8.41254 17.0761 8.29237 17.1961C8.17219 17.3161 8.10461 17.4789 8.10449 17.6488C8.10437 17.8186 8.17172 17.9815 8.29173 18.1017L9.51157 19.3202C9.63159 19.4402 9.79434 19.5076 9.96405 19.5076C10.1338 19.5076 10.2965 19.4402 10.4165 19.3202L12.8549 16.8882C12.9751 16.7682 13.0427 16.6054 13.0428 16.4356C13.0429 16.2657 12.9756 16.1028 12.8556 15.9826C12.7356 15.8625 12.5727 15.7949 12.4029 15.7948C12.2331 15.7946 12.0701 15.862 11.95 15.982L11.9474 15.9756Z" fill="#056433"/>
<path d="M11.9474 21.0956L9.96597 23.0847L9.19797 22.3167C9.13855 22.2572 9.06799 22.21 8.99032 22.1777C8.91265 22.1455 8.82939 22.1289 8.7453 22.1288C8.66121 22.1288 8.57793 22.1453 8.50021 22.1774C8.4225 22.2095 8.35187 22.2566 8.29237 22.316C8.23286 22.3755 8.18565 22.446 8.15341 22.5237C8.12117 22.6014 8.10455 22.6846 8.10449 22.7687C8.10443 22.8528 8.12094 22.9361 8.15306 23.0138C8.18519 23.0915 8.23231 23.1621 8.29173 23.2216L9.51157 24.4402C9.63159 24.5602 9.79434 24.6276 9.96405 24.6276C10.1338 24.6276 10.2965 24.5602 10.4165 24.4402L12.8549 22.0082C12.9751 21.8882 13.0427 21.7254 13.0428 21.5555C13.0429 21.3857 12.9756 21.2228 12.8556 21.1026C12.7356 20.9824 12.5727 20.9149 12.4029 20.9147C12.2331 20.9146 12.0701 20.982 11.95 21.102L11.9474 21.0956Z" fill="#056433"/>
<path d="M8.74742 5.54871H16.4274C16.5972 5.54871 16.7599 5.48128 16.88 5.36126C17 5.24123 17.0674 5.07845 17.0674 4.90871C17.0674 4.73897 17 4.57618 16.88 4.45616C16.7599 4.33614 16.5972 4.26871 16.4274 4.26871H8.74742C8.57768 4.26871 8.4149 4.33614 8.29487 4.45616C8.17485 4.57618 8.10742 4.73897 8.10742 4.90871C8.10742 5.07845 8.17485 5.24123 8.29487 5.36126C8.4149 5.48128 8.57768 5.54871 8.74742 5.54871Z" fill="#056433"/>
<path d="M16.4274 8.1087H8.74742C8.57768 8.1087 8.4149 8.17613 8.29487 8.29616C8.17485 8.41618 8.10742 8.57897 8.10742 8.7487C8.10742 8.91844 8.17485 9.08123 8.29487 9.20125C8.4149 9.32128 8.57768 9.3887 8.74742 9.3887H16.4274C16.5972 9.3887 16.7599 9.32128 16.88 9.20125C17 9.08123 17.0674 8.91844 17.0674 8.7487C17.0674 8.57897 17 8.41618 16.88 8.29616C16.7599 8.17613 16.5972 8.1087 16.4274 8.1087Z" fill="#056433"/>
<path d="M12.5874 11.9487H8.74742C8.57768 11.9487 8.4149 12.0161 8.29487 12.1362C8.17485 12.2562 8.10742 12.419 8.10742 12.5887C8.10742 12.7584 8.17485 12.9212 8.29487 13.0412C8.4149 13.1613 8.57768 13.2287 8.74742 13.2287H12.5874C12.7572 13.2287 12.9199 13.1613 13.04 13.0412C13.16 12.9212 13.2274 12.7584 13.2274 12.5887C13.2274 12.419 13.16 12.2562 13.04 12.1362C12.9199 12.0161 12.7572 11.9487 12.5874 11.9487Z" fill="#056433"/>
</svg>
