<svg width="32" height="32" viewBox="0 0 32 32" fill="none" xmlns="http://www.w3.org/2000/svg">
<path d="M13.6732 0H2.98305C2.19234 0.00143375 1.43442 0.316179 0.875299 0.875299C0.316179 1.43442 0.00143375 2.19234 0 2.98305V13.6732C0 13.889 0.0857141 14.0959 0.238286 14.2485C0.390858 14.4011 0.59779 14.4868 0.813559 14.4868H11.5037C12.2949 14.4868 13.0536 14.1725 13.6131 13.6131C14.1725 13.0536 14.4868 12.2949 14.4868 11.5037V0.813559C14.4868 0.59779 14.4011 0.390858 14.2485 0.238286C14.0959 0.0857141 13.889 0 13.6732 0ZM12.8597 11.5037C12.8597 11.6818 12.8246 11.8581 12.7564 12.0226C12.6883 12.1871 12.5884 12.3366 12.4625 12.4625C12.3366 12.5884 12.1871 12.6883 12.0226 12.7564C11.8581 12.8246 11.6818 12.8597 11.5037 12.8597H1.62712V2.98305C1.62712 2.62344 1.76998 2.27855 2.02426 2.02426C2.27855 1.76998 2.62344 1.62712 2.98305 1.62712H12.8597V11.5037Z" fill="#056433"/>
<path d="M11.5037 17.5132H0.813559C0.59779 17.5132 0.390858 17.5989 0.238286 17.7515C0.0857141 17.9041 0 18.111 0 18.3268V29.0169C0.00143375 29.8077 0.316179 30.5656 0.875299 31.1247C1.43442 31.6838 2.19234 31.9986 2.98305 32H13.6732C13.889 32 14.0959 31.9143 14.2485 31.7617C14.4011 31.6091 14.4868 31.4022 14.4868 31.1864V20.4963C14.4868 19.7051 14.1725 18.9464 13.6131 18.3869C13.0536 17.8275 12.2949 17.5132 11.5037 17.5132ZM12.8597 30.3729H2.98305C2.62344 30.3729 2.27855 30.23 2.02426 29.9757C1.76998 29.7214 1.62712 29.3766 1.62712 29.0169V19.1403H11.5037C11.6818 19.1403 11.8581 19.1754 12.0226 19.2435C12.1871 19.3117 12.3366 19.4116 12.4625 19.5375C12.5884 19.6634 12.6883 19.8129 12.7564 19.9774C12.8246 20.1419 12.8597 20.3182 12.8597 20.4963V30.3729Z" fill="#056433"/>
<path d="M31.1869 17.5132H20.4967C19.7056 17.5132 18.9468 17.8275 18.3874 18.3869C17.828 18.9464 17.5137 19.7051 17.5137 20.4963V31.1864C17.5137 31.4022 17.5994 31.6091 17.752 31.7617C17.9045 31.9143 18.1115 32 18.3272 32H29.0174C29.8081 31.9986 30.566 31.6838 31.1252 31.1247C31.6843 30.5656 31.999 29.8077 32.0005 29.0169V18.3268C32.0005 18.111 31.9147 17.9041 31.7622 17.7515C31.6096 17.5989 31.4027 17.5132 31.1869 17.5132ZM30.3733 29.0169C30.3733 29.3766 30.2305 29.7214 29.9762 29.9757C29.7219 30.23 29.377 30.3729 29.0174 30.3729H19.1408V20.4963C19.1408 20.1366 19.2836 19.7918 19.5379 19.5375C19.7922 19.2832 20.1371 19.1403 20.4967 19.1403H30.3733V29.0169Z" fill="#056433"/>
<path d="M20.4967 10.2292H21.7713V11.5037C21.7713 12.2949 22.0856 13.0536 22.645 13.6131C23.2044 14.1725 23.9632 14.4868 24.7543 14.4868C25.5455 14.4868 26.3043 14.1725 26.8637 13.6131C27.4231 13.0536 27.7374 12.2949 27.7374 11.5037V10.2292H29.0174C29.8086 10.2292 30.5673 9.91487 31.1267 9.35544C31.6862 8.79601 32.0005 8.03726 32.0005 7.2461C32.0005 6.45495 31.6862 5.6962 31.1267 5.13677C30.5673 4.57734 29.8086 4.26305 29.0174 4.26305H27.7374V2.98305C27.7374 2.1919 27.4231 1.43315 26.8637 0.873715C26.3043 0.314285 25.5455 0 24.7543 0C23.9632 0 23.2044 0.314285 22.645 0.873715C22.0856 1.43315 21.7713 2.1919 21.7713 2.98305V4.26305H20.4967C19.7056 4.26305 18.9468 4.57734 18.3874 5.13677C17.828 5.6962 17.5137 6.45495 17.5137 7.2461C17.5137 8.03726 17.828 8.79601 18.3874 9.35544C18.9468 9.91487 19.7056 10.2292 20.4967 10.2292ZM20.4967 5.89017H22.5849C22.8006 5.89017 23.0076 5.80446 23.1601 5.65188C23.3127 5.49931 23.3984 5.29238 23.3984 5.07661V2.98305C23.3984 2.62344 23.5413 2.27855 23.7956 2.02426C24.0498 1.76998 24.3947 1.62712 24.7543 1.62712C25.114 1.62712 25.4589 1.76998 25.7131 2.02426C25.9674 2.27855 26.1103 2.62344 26.1103 2.98305V5.07661C26.1103 5.29238 26.196 5.49931 26.3486 5.65188C26.5011 5.80446 26.7081 5.89017 26.9238 5.89017H29.0174C29.377 5.89017 29.7219 6.03303 29.9762 6.28731C30.2305 6.5416 30.3733 6.88649 30.3733 7.2461C30.3733 7.60572 30.2305 7.9506 29.9762 8.20489C29.7219 8.45918 29.377 8.60203 29.0174 8.60203H26.9238C26.7081 8.60203 26.5011 8.68775 26.3486 8.84032C26.196 8.99289 26.1103 9.19982 26.1103 9.41559V11.5037C26.1103 11.8633 25.9674 12.2082 25.7131 12.4625C25.4589 12.7168 25.114 12.8597 24.7543 12.8597C24.3947 12.8597 24.0498 12.7168 23.7956 12.4625C23.5413 12.2082 23.3984 11.8633 23.3984 11.5037V9.41559C23.3984 9.19982 23.3127 8.99289 23.1601 8.84032C23.0076 8.68775 22.8006 8.60203 22.5849 8.60203H20.4967C20.1371 8.60203 19.7922 8.45918 19.5379 8.20489C19.2836 7.9506 19.1408 7.60572 19.1408 7.2461C19.1408 6.88649 19.2836 6.5416 19.5379 6.28731C19.7922 6.03303 20.1371 5.89017 20.4967 5.89017Z" fill="#056433"/>
</svg>
