<svg width="30" height="30" viewBox="0 0 30 30" fill="none" xmlns="http://www.w3.org/2000/svg">
<path d="M2.40611 8.93368C2.32261 8.70499 2.1088 8.54983 1.86552 8.54134C1.62089 8.5336 1.39811 8.67288 1.29897 8.89519C0.437053 10.8277 0 12.8816 0 14.9996C0 17.8686 0.812993 20.6574 2.35103 23.0644C3.84799 25.4072 5.95832 27.2863 8.45407 28.4986C8.53716 28.539 8.6264 28.5587 8.71505 28.5587C8.86001 28.5587 9.00339 28.5059 9.1156 28.4046C9.29636 28.2414 9.36005 27.9848 9.27656 27.7561L2.40611 8.93368ZM1.19526 14.9996C1.19526 13.5779 1.40925 12.1874 1.83294 10.8489L7.60446 26.6608C3.61508 24.1431 1.19526 19.8033 1.19526 14.9996Z" fill="#056433"/>
<path d="M20.2359 28.1699L15.8136 16.0543C15.7274 15.8183 15.503 15.6616 15.2523 15.6616C15.2504 15.6616 15.2485 15.6616 15.2466 15.6616C14.9936 15.664 14.7695 15.8255 14.6871 16.0648L10.3656 28.6211C10.3124 28.7753 10.3247 28.9447 10.3996 29.0897C10.4745 29.2347 10.6055 29.3428 10.762 29.3889C12.141 29.7945 13.5666 30.0001 14.999 30.0001C16.7013 30.0001 18.3773 29.714 19.9804 29.1496C20.1507 29.0896 20.2848 28.9559 20.3452 28.7857C20.4056 28.6154 20.3857 28.427 20.2912 28.2731C20.2664 28.2326 20.2486 28.1996 20.2359 28.1699ZM14.999 28.8049C13.889 28.8049 12.7833 28.6706 11.7038 28.4054L15.2687 18.0475L18.9812 28.2189C17.6906 28.6079 16.354 28.8049 14.999 28.8049Z" fill="#056433"/>
<path d="M21.8737 23.6654C22.1265 23.6654 22.3523 23.5063 22.4369 23.2677L24.0271 18.7889C24.7898 16.8321 25.1606 15.2407 25.1606 13.9243C25.1606 11.9397 24.5733 10.9118 24.055 10.0049C24.0518 9.99937 24.0486 9.99381 24.0452 9.9883C23.9877 9.89473 23.9304 9.80226 23.8738 9.71074C23.2545 8.71083 22.7196 7.84727 22.7196 6.92336C22.7196 5.98152 23.4156 4.96491 24.54 4.96491C24.5586 4.96491 24.5872 4.96731 24.6174 4.96989C24.6411 4.97188 24.6646 4.97382 24.6883 4.97534C24.9419 4.99181 25.177 4.84643 25.2765 4.61329C25.3758 4.38014 25.3174 4.10955 25.1304 3.93828C22.3589 1.39864 18.7617 0 15.0012 0C9.94244 0 5.25737 2.52699 2.46871 6.75971C2.3497 6.94035 2.33757 7.17115 2.43701 7.36323C2.53638 7.55524 2.73185 7.67864 2.94795 7.68579C3.31598 7.69797 3.63461 7.70419 3.89483 7.70419C5.28269 7.70419 7.31531 7.55477 7.71411 7.52442C7.77792 7.63938 7.78401 7.91348 7.72213 8.01602C7.56481 8.0336 6.88312 8.10702 6.14636 8.14546C5.95974 8.15518 5.78847 8.25157 5.68335 8.40614C5.57823 8.5606 5.55146 8.75542 5.61099 8.93255L10.3266 22.9696C10.4084 23.213 10.6364 23.3769 10.8931 23.3769C10.8934 23.3769 10.8936 23.3769 10.8938 23.3769C11.1508 23.3766 11.3788 23.2121 11.4601 22.9684L14.612 13.5158C14.6553 13.3861 14.6528 13.2455 14.6049 13.1173L12.8899 8.53276C12.8069 8.31116 12.6011 8.15934 12.365 8.14557C11.6862 8.10602 11.0306 8.02909 10.9123 8.01485C10.8585 7.90083 10.8709 7.63768 10.9344 7.52454C11.3447 7.55524 13.4012 7.70407 14.7041 7.70407C16.0922 7.70407 18.125 7.55465 18.5235 7.5243C18.5874 7.6392 18.5936 7.91342 18.5317 8.01585C18.3748 8.03343 17.6922 8.1069 16.9557 8.1454C16.7687 8.15513 16.597 8.2521 16.4919 8.40726C16.3869 8.56241 16.3607 8.75782 16.4212 8.93513L21.3082 23.2608C21.3903 23.5015 21.6158 23.6639 21.8701 23.6654C21.8713 23.6654 21.8724 23.6654 21.8737 23.6654ZM17.8037 9.28599C18.3133 9.24451 18.6819 9.20179 18.7045 9.1991C19.3916 9.11788 19.8366 8.45243 19.7628 7.61676C19.6921 6.81795 19.1749 6.28691 18.5075 6.32687C18.5037 6.32711 18.4998 6.32734 18.4959 6.32763C18.4728 6.32945 16.1689 6.50881 14.704 6.50881C13.3284 6.50881 10.9803 6.32933 10.9567 6.32758C10.9531 6.32728 10.9496 6.32705 10.9459 6.32687C10.2669 6.28615 9.73584 6.85908 9.68679 7.6879C9.63781 8.5156 10.0888 9.14771 10.7621 9.20062C10.8572 9.21216 11.3337 9.26882 11.9052 9.31236L13.4111 13.3381L10.8908 20.8964L6.99059 9.28634C7.50246 9.2448 7.8726 9.20185 7.89551 9.19915C8.58247 9.11794 9.02732 8.45226 8.95343 7.61641C8.88271 6.81783 8.36561 6.2865 7.6984 6.32693C7.69459 6.32717 7.69061 6.3274 7.6868 6.32769C7.66489 6.32951 5.58421 6.49146 4.11965 6.50764C6.72984 3.16174 10.72 1.19514 15.0012 1.19514C18.0436 1.19514 20.97 2.18995 23.3659 4.01862C22.2847 4.49833 21.5244 5.61976 21.5244 6.92336C21.5244 8.18741 22.172 9.23308 22.8577 10.3401C22.912 10.4278 22.9669 10.5165 23.0221 10.6062C23.5078 11.4563 23.9653 12.2626 23.9653 13.9243C23.9653 15.0752 23.6103 16.5685 22.9101 18.3631C22.9079 18.3688 22.9058 18.3746 22.9037 18.3804L21.8849 21.2498L17.8037 9.28599Z" fill="#056433"/>
<path d="M28.1624 7.80284C28.024 7.55041 27.7252 7.43258 27.4515 7.52241C27.1779 7.61252 27.0075 7.88499 27.0462 8.1704C27.107 8.61952 27.1379 9.09074 27.1379 9.57086C27.1379 11.1426 26.8033 12.7111 26.0849 14.5072C26.0814 14.516 26.0781 14.5249 26.075 14.5338L21.6764 27.252C21.5948 27.4882 21.6686 27.7503 21.8618 27.909C21.9712 27.9989 22.1059 28.0449 22.2414 28.0449C22.3448 28.0449 22.4488 28.0181 22.5421 27.9636C24.7697 26.665 26.6372 24.8041 27.9428 22.5822C29.2886 20.2919 30 17.6697 30 14.9991C29.9999 12.4852 29.3645 9.99672 28.1624 7.80284ZM23.3885 25.9585L27.2002 14.9377C27.7469 13.5681 28.0871 12.3138 28.2394 11.0866C28.6123 12.3517 28.8048 13.6715 28.8048 14.9991C28.8048 19.3057 26.7659 23.3647 23.3885 25.9585Z" fill="#056433"/>
<path d="M15.3733 21.6647C15.0603 21.5603 14.7218 21.7297 14.6173 22.0427L14.5377 22.2817C14.4333 22.5948 14.6026 22.9332 14.9156 23.0377C14.9783 23.0586 15.042 23.0685 15.1047 23.0685C15.3549 23.0685 15.5881 22.9101 15.6716 22.6597L15.7513 22.4207C15.8556 22.1076 15.6863 21.7692 15.3733 21.6647Z" fill="#056433"/>
<path d="M14.6295 23.8764C14.3163 23.7717 13.978 23.9413 13.8735 24.2543L12.8775 27.2423C12.7731 27.5554 12.9424 27.8939 13.2555 27.9982C13.3182 28.0192 13.3819 28.0291 13.4445 28.0291C13.6947 28.0291 13.9279 27.8707 14.0114 27.6203L15.0074 24.6322C15.1118 24.3191 14.9425 23.9807 14.6295 23.8764Z" fill="#056433"/>
</svg>
